<svg width="1318" height="845" viewBox="0 0 1318 845" fill="none" xmlns="http://www.w3.org/2000/svg">
<path d="M1116.21 227.201V202.858C1116.21 93.8614 1026.78 5.2369 916.923 5.2369C807.07 5.2369 717.58 93.9187 717.58 202.858C717.58 228.179 738.298 248.724 763.83 248.724C789.369 248.724 810.084 228.179 810.084 202.858C810.084 144.504 857.962 96.9691 916.863 96.9691C975.773 96.9691 1023.65 144.446 1023.65 202.858V273.124C1023.65 298.445 1044.37 318.991 1069.9 318.991H1118.01C1176.86 318.991 1224.79 366.468 1224.79 424.879C1224.79 483.291 1176.91 530.768 1118.01 530.768H1069.9C1044.37 530.768 1023.65 551.314 1023.65 576.635V646.901C1023.65 705.255 975.773 752.791 916.863 752.791C857.962 752.791 810.084 705.313 810.084 646.901V526.971C810.084 442.489 740.794 373.777 655.601 373.777C621.477 373.777 593.68 346.211 593.68 312.373V197.679C593.738 88.6821 504.308 0 394.393 0C284.479 0 195.05 88.6821 195.05 197.679V222.079C87.1078 224.266 0 312.084 0 419.643C0 527.201 87.1078 615.019 195.108 617.263V641.664C195.108 750.662 284.537 839.345 394.451 839.345C504.366 839.345 593.795 750.662 593.795 641.664C593.795 616.343 573.077 595.798 547.543 595.798C522.009 595.798 501.291 616.343 501.291 641.664C501.291 700.018 453.413 747.55 394.509 747.55C335.606 747.55 287.728 700.076 287.728 641.664V571.397C287.728 546.076 267.011 525.532 241.476 525.532H199.402C140.556 525.532 92.6213 478.054 92.6213 419.643C92.6213 361.231 140.498 313.753 199.402 313.753H241.476C267.011 313.753 287.728 293.209 287.728 267.888V197.621C287.728 139.267 335.606 91.7318 394.509 91.7318C453.413 91.7318 501.291 139.21 501.291 197.621V312.315C501.291 396.796 570.582 465.508 655.775 465.508C689.899 465.508 717.696 493.074 717.696 526.913V646.844C717.696 755.843 807.122 844.519 917.042 844.519C1026.95 844.519 1116.32 755.843 1116.32 646.844V622.501H1118.12C1228.04 622.501 1317.41 533.819 1317.41 424.822C1317.41 315.826 1227.99 227.201 1118.12 227.201H1116.21Z" fill="#8045FF"/>
</svg>
