<svg width="3608" height="1238" viewBox="0 0 3608 1238" fill="none" xmlns="http://www.w3.org/2000/svg">
<path d="M1206.49 867.68L1137.7 931.285L1201.01 989.789L1071.08 1109.9L1007.77 1051.4L941.082 989.789L872.298 926.183L739.54 803.52L869.478 683.408L1002.24 806.071C1041.11 842.005 1100.93 842.005 1139.8 806.071L1272.56 683.353L1341.35 619.803L1272.51 556.198L1139.75 433.535C1100.88 397.601 1041.05 397.601 1002.18 433.535L869.423 556.253L739.43 436.141L872.188 313.423C909.234 279.153 909.234 220.538 872.188 186.268L739.43 63.5496L670.701 0L601.917 63.5496L469.159 186.268C432.113 220.538 432.113 279.153 469.159 313.423L601.917 436.141L471.924 556.253L339.166 433.535C300.295 397.601 240.468 397.601 201.597 433.535L68.8395 556.198L0 619.748L68.7842 683.353L201.542 806.071C240.413 842.005 300.24 842.005 339.11 806.071L471.868 683.408L601.861 803.52L469.104 926.183L400.319 989.789L335.019 1050.12L270.326 1109.9L140.333 989.789L205.025 930.01L136.241 866.405L71.5488 926.183L2.76464 989.789L71.5488 1053.39L201.542 1173.51L270.326 1237.11L339.11 1173.51L403.803 1113.73L469.104 1053.39L537.888 989.789L670.646 867.125L803.404 989.789L872.243 1053.39L938.926 1115L1002.24 1173.51L1071.02 1237.11L1139.86 1173.51L1269.8 1053.39L1338.58 989.789L1269.8 926.183L1206.49 867.68ZM1137.7 804.186L1269.85 682.077L1137.7 804.186ZM1137.7 559.969L1201.35 618.75L1137.65 677.586C1098.94 713.353 1039.39 713.353 1000.69 677.586L937.046 618.805L1000.74 559.969C1039.45 524.201 1099 524.201 1137.7 559.969ZM203.754 677.641L140.057 618.805L203.698 560.024C242.403 524.257 301.954 524.257 340.659 560.024L404.356 618.86L340.714 677.641C302.009 713.409 242.459 713.409 203.754 677.641ZM607.004 187.211L670.701 128.375L734.398 187.211C771.278 221.315 771.278 279.707 734.398 313.811L670.701 372.647L607.004 313.811C570.123 279.707 570.123 221.315 607.004 187.211ZM541.316 618.805L670.701 499.247L800.086 618.805L670.701 738.363L541.316 618.805Z" fill="#32D81E"/>
<path d="M1557.49 308.987C1566.22 296.344 1579.38 290.022 1597.02 290.022C1613.22 290.022 1625.27 293.737 1633.18 301.223C1641.09 308.71 1645.73 320.743 1647 337.324H1699.81C1696.99 308.599 1686.54 286.306 1668.46 270.391C1650.38 254.476 1626.55 246.546 1596.96 246.546C1575.62 246.546 1556.82 251.593 1540.73 261.63C1524.59 271.722 1512.2 286.14 1503.46 304.994C1494.78 323.848 1490.42 345.586 1490.42 370.318V386.012C1490.42 424.774 1499.82 455.218 1518.67 477.399C1537.53 499.58 1563.35 510.671 1596.25 510.671C1626.27 510.671 1650.49 502.741 1668.9 486.826C1687.26 470.911 1697.43 449.173 1699.48 421.502H1646.67C1645.51 437.14 1640.87 448.73 1632.85 456.216C1624.83 463.702 1612.61 467.417 1596.3 467.417C1578.22 467.417 1565.01 460.985 1556.6 448.175C1548.2 435.365 1543.99 415.014 1543.99 387.232V367.823C1544.22 341.205 1548.69 321.575 1557.49 308.932V308.987Z" fill="black"/>
<path d="M1818.52 510.726C1834.39 510.726 1848.82 507.677 1861.82 501.632C1874.81 495.588 1885.15 487.103 1892.78 476.29L1867.79 448.23C1856.73 462.482 1841.41 469.58 1821.84 469.58C1809.18 469.58 1798.67 465.809 1790.43 458.268C1782.14 450.726 1777.22 440.744 1775.56 428.267H1896.87V407.417C1896.87 377.139 1889.41 353.793 1874.42 337.324C1859.44 320.854 1838.93 312.591 1812.88 312.591C1795.52 312.591 1780.04 316.695 1766.49 324.847C1752.95 333.054 1742.44 344.699 1735.09 359.838C1727.68 374.976 1723.97 392.112 1723.97 411.298V416.234C1723.97 444.848 1732.76 467.75 1750.29 484.941C1767.82 502.131 1790.6 510.726 1818.52 510.726ZM1788.17 363.997C1794.47 357.12 1802.65 353.682 1812.72 353.682C1823.5 353.682 1831.85 356.788 1837.71 362.998C1843.57 369.209 1846.61 377.971 1846.89 389.339V393.442H1776.11C1777.88 380.688 1781.92 370.873 1788.17 363.997Z" fill="black"/>
<path d="M2028.91 312.591C2006.02 312.591 1987.77 321.131 1974.17 338.211L1972.57 316.14H1924.69V507.233H1975.55V372.481C1982.69 360.226 1993.47 354.126 2007.79 354.126C2018.68 354.126 2026.53 356.566 2031.23 361.446C2035.93 366.326 2038.26 374.2 2038.26 385.014V507.233H2089.13V383.794C2088.9 360.115 2083.82 342.37 2073.98 330.447C2064.13 318.58 2049.09 312.591 2028.91 312.591Z" fill="black"/>
<path d="M2137.73 456.493C2138.45 492.649 2156.64 510.726 2192.3 510.726C2202.86 510.726 2213.15 509.174 2223.1 506.124V467.473C2218.73 468.305 2213.76 468.693 2208.12 468.693C2200.49 468.693 2195.34 467.14 2192.63 464.09C2189.92 461.04 2188.6 455.994 2188.6 448.896V353.516H2221.16V316.085H2188.6V269.116H2137.73V316.085H2109.92V353.516H2137.73V456.493Z" fill="black"/>
<path d="M2299.07 338.931L2297.69 316.14H2249.64V507.233H2300.51V382.185C2306.48 369.098 2319.09 362.61 2338.39 362.61C2343.69 362.61 2349.78 363.109 2356.69 363.996L2357.41 314.92C2352.48 313.367 2347.18 312.646 2341.54 312.646C2323.46 312.646 2309.3 321.408 2299.13 338.987L2299.07 338.931Z" fill="black"/>
<path d="M2481.1 490.098C2482.15 496.919 2483.86 502.63 2486.18 507.233H2537.61V504.238C2532.68 494.922 2530.14 481.225 2530.03 463.092V380.245C2530.03 358.839 2523.12 342.203 2509.35 330.336C2495.58 318.525 2476.89 312.591 2453.45 312.591C2437.97 312.591 2423.98 315.253 2411.54 320.632C2399.1 326.011 2389.48 333.386 2382.67 342.813C2375.87 352.241 2372.45 362.499 2372.45 373.535H2423.31C2423.31 366.381 2425.75 360.725 2430.61 356.566C2435.48 352.462 2442.22 350.411 2450.8 350.411C2460.53 350.411 2467.66 353.072 2472.19 358.34C2476.73 363.664 2478.99 370.707 2478.99 379.524V390.448H2455.55C2427.24 390.559 2405.62 396.049 2390.64 406.862C2375.65 417.676 2368.19 433.258 2368.19 453.498C2368.19 469.968 2374.33 483.665 2386.6 494.479C2398.88 505.292 2414.36 510.726 2432.99 510.726C2452.73 510.726 2468.71 503.85 2481.04 490.042L2481.1 490.098ZM2464.9 466.696C2458.54 470.079 2451.62 471.743 2444.1 471.743C2436.59 471.743 2430.23 469.691 2425.8 465.587C2421.32 461.484 2419.11 456.216 2419.11 449.894L2419.28 446.9C2420.94 429.265 2434.48 420.393 2459.97 420.393H2478.99V453.221C2475.95 458.878 2471.25 463.369 2464.9 466.752V466.696Z" fill="black"/>
<path d="M2622.87 235.955H2571.78V507.233H2622.87V235.955Z" fill="black"/>
<path d="M2880.64 250.095H2831.71L2736.27 507.233H2792.45L2810.03 454.275H2902.65L2920.45 507.233H2976.63L2880.64 250.095ZM2824.3 411.354L2856.15 315.087L2888.38 411.354H2824.3Z" fill="black"/>
<path d="M3109.55 400.873C3100.87 397.712 3090.2 394.829 3077.48 392.333C3064.82 389.782 3055.81 386.788 3050.44 383.35C3045.08 379.856 3042.43 375.309 3042.43 369.653C3042.43 363.664 3044.75 358.728 3049.45 354.791C3054.15 350.909 3060.78 348.969 3069.36 348.969C3079.31 348.969 3086.66 351.353 3091.36 356.122C3096.06 360.891 3098.38 366.935 3098.38 374.2H3149.25C3149.25 355.956 3142.01 341.094 3127.52 329.671C3113.04 318.247 3093.68 312.536 3069.52 312.536C3046.85 312.536 3028.49 318.192 3014.5 329.56C3000.46 340.928 2993.44 355.068 2993.44 372.037C2993.44 401.095 3016.11 420.448 3061.39 429.986C3074.99 432.814 3084.89 436.03 3091.09 439.635C3097.22 443.239 3100.32 448.119 3100.32 454.386C3100.32 460.652 3097.83 465.254 3092.85 468.97C3087.88 472.685 3080.52 474.515 3070.74 474.515C3060.29 474.515 3051.94 472.075 3045.75 467.251C3039.5 462.426 3036.18 455.495 3035.68 446.4H2987.41C2987.41 457.935 2990.95 468.693 2997.97 478.619C3004.99 488.545 3014.73 496.419 3027.11 502.131C3039.5 507.843 3053.65 510.671 3069.63 510.671C3093.24 510.671 3112.48 505.292 3127.41 494.534C3142.34 483.776 3149.75 469.691 3149.75 452.223C3149.75 427.879 3136.31 410.744 3109.44 400.818L3109.55 400.873Z" fill="black"/>
<path d="M3236.39 316.14H3185.3V507.233H3236.39V316.14Z" fill="black"/>
<path d="M3210.79 240.391C3202 240.391 3195.04 242.886 3189.95 247.821C3184.86 252.757 3182.26 259.078 3182.26 266.731C3182.26 274.384 3184.86 280.872 3190.11 285.807C3195.31 290.742 3202.22 293.238 3210.79 293.238C3219.36 293.238 3226.28 290.742 3231.47 285.807C3236.67 280.872 3239.33 274.494 3239.33 266.731C3239.33 258.968 3236.73 252.757 3231.58 247.821C3226.44 242.886 3219.48 240.391 3210.79 240.391Z" fill="black"/>
<path d="M3358.04 390.448C3329.73 390.559 3308.11 396.049 3293.13 406.862C3278.14 417.675 3270.68 433.258 3270.68 453.498C3270.68 469.968 3276.81 483.665 3289.09 494.478C3301.36 505.292 3316.85 510.726 3335.48 510.726C3355.22 510.726 3371.2 503.85 3383.53 490.042C3384.58 496.863 3386.29 502.575 3388.62 507.177H3440.04V504.183C3435.12 494.867 3432.57 481.17 3432.46 463.036V380.189C3432.46 358.784 3425.55 342.148 3411.78 330.281C3398.02 318.469 3379.33 312.536 3355.88 312.536C3340.4 312.536 3326.41 315.197 3313.97 320.576C3301.53 325.955 3291.91 333.331 3285.11 342.758C3278.31 352.185 3274.88 362.444 3274.88 373.479H3325.75C3325.75 366.325 3328.18 360.669 3333.05 356.51C3337.91 352.407 3344.66 350.355 3353.23 350.355C3362.96 350.355 3370.09 353.017 3374.63 358.285C3379.16 363.608 3381.43 370.651 3381.43 379.468V390.392H3357.98L3358.04 390.448ZM3381.48 453.166C3378.44 458.822 3373.74 463.314 3367.38 466.696C3361.02 470.079 3354.11 471.742 3346.59 471.742C3339.07 471.742 3332.71 469.691 3328.29 465.587C3323.81 461.484 3321.6 456.215 3321.6 449.894L3321.77 446.899C3323.43 429.265 3336.97 420.393 3362.46 420.393H3381.48V453.221V453.166Z" fill="black"/>
<path d="M1646.29 808.955C1657.79 804.463 1666.74 797.421 1673.21 787.827C1679.68 778.234 1682.89 767.143 1682.89 754.555C1682.89 731.487 1674.87 713.963 1658.78 702.041C1642.69 690.118 1619.08 684.129 1588.01 684.129H1498.21V941.267H1597.85C1626.93 941.045 1649.38 934.557 1665.14 921.858C1680.84 909.159 1688.75 890.416 1688.75 865.684C1688.75 851.211 1684.99 838.955 1677.42 828.974C1669.84 818.992 1659.5 812.338 1646.34 809.011L1646.29 808.955ZM1551.02 726.995H1588.01C1602.55 726.995 1613.22 729.546 1619.97 734.703C1626.71 739.805 1630.09 748.234 1630.09 759.879C1630.09 780.729 1616.76 791.376 1590.11 791.82H1551.02V726.995ZM1625.39 889.751C1618.42 895.684 1608.69 898.679 1596.25 898.679H1551.02V829.251H1599.45C1623.73 829.584 1635.89 841.562 1635.89 865.074C1635.89 875.555 1632.41 883.762 1625.44 889.695L1625.39 889.751Z" fill="black"/>
<path d="M1753.17 674.37C1744.38 674.37 1737.41 676.865 1732.32 681.8C1727.23 686.736 1724.64 693.057 1724.64 700.71C1724.64 708.363 1727.23 714.851 1732.49 719.786C1737.68 724.721 1744.6 727.217 1753.17 727.217C1761.74 727.217 1768.65 724.721 1773.85 719.786C1779.04 714.851 1781.7 708.473 1781.7 700.71C1781.7 692.947 1779.1 686.736 1773.96 681.8C1768.81 676.865 1761.85 674.37 1753.17 674.37Z" fill="black"/>
<path d="M1778.77 750.119H1727.68V941.211H1778.77V750.119Z" fill="black"/>
<path d="M1965.6 770.248C1949.35 754.5 1928.33 746.57 1902.68 746.57C1884.6 746.57 1868.73 750.618 1855.07 758.77C1841.41 766.866 1830.91 778.345 1823.67 793.206C1816.37 808.068 1812.77 824.925 1812.77 843.891V846.164C1812.77 876.553 1820.96 900.564 1837.32 918.198C1853.69 935.832 1875.64 944.705 1903.07 944.705C1930.49 944.705 1952.44 935.832 1968.75 918.143C1985.06 900.398 1993.25 876.885 1993.25 847.606L1992.92 834.519C1991.04 807.458 1981.97 785.997 1965.71 770.248H1965.6ZM1931.87 889.362C1924.96 898.845 1915.34 903.614 1903.01 903.614C1890.68 903.614 1880.56 898.79 1873.76 889.196C1866.96 879.603 1863.53 865.684 1863.53 847.55C1863.53 827.144 1866.96 812.116 1873.76 802.356C1880.56 792.652 1890.18 787.772 1902.62 787.772C1915.06 787.772 1924.91 792.652 1931.87 802.467C1938.78 812.282 1942.27 826.035 1942.27 843.835C1942.27 864.686 1938.78 879.88 1931.87 889.362Z" fill="black"/>
<path d="M2276.07 695.996C2259.48 685.682 2240.46 680.525 2219.12 680.525C2197.78 680.525 2178.75 685.682 2162.17 695.996C2145.58 706.311 2132.7 721.061 2123.63 740.304C2114.5 759.546 2109.97 781.838 2109.97 807.125V819.824C2110.08 844.556 2114.73 866.405 2123.9 885.425C2133.08 904.446 2145.97 919.086 2162.66 929.289C2179.31 939.548 2198.27 944.65 2219.56 944.65C2240.85 944.65 2260.09 939.492 2276.68 929.123C2293.27 918.753 2306.04 904.058 2315 884.982C2323.9 865.906 2328.38 843.724 2328.38 818.382V806.903C2328.38 781.727 2323.84 759.491 2314.72 740.248C2305.6 721.006 2292.77 706.2 2276.18 695.941L2276.07 695.996ZM2274.74 819.325C2274.63 846.053 2269.82 866.405 2260.31 880.324C2250.8 894.242 2237.2 901.23 2219.45 901.23C2201.7 901.23 2187.55 893.965 2177.87 879.492C2168.25 865.019 2163.44 844.667 2163.44 818.382V805.85C2163.55 779.121 2168.42 758.825 2178.04 745.017C2187.66 731.209 2201.31 724.278 2219.06 724.278C2236.81 724.278 2250.64 731.265 2260.26 745.294C2269.88 759.324 2274.69 779.787 2274.69 806.737V819.269L2274.74 819.325Z" fill="black"/>
<path d="M2417.07 669.933H2365.98V941.211H2417.07V669.933Z" fill="black"/>
<path d="M2530.09 868.956L2494.7 750.119H2439.96L2506.7 941.711L2500.72 957.404C2498.02 964.225 2494.31 969.105 2489.56 972.044C2484.8 974.983 2477.61 976.48 2467.99 976.48L2460.25 976.314V1014.96C2467.88 1017.18 2475.4 1018.35 2482.81 1018.35C2508.96 1018.35 2527.76 1005.87 2539.15 980.916L2543.36 970.824L2619.94 750.063H2565.36L2530.14 868.9L2530.09 868.956Z" fill="black"/>
<path d="M2851.78 746.57C2827.01 746.57 2807.93 756.274 2794.55 775.683C2785.37 756.274 2768.56 746.57 2744.01 746.57C2721.01 746.57 2702.76 754.888 2689.27 771.468L2687.67 750.119H2639.95V941.211H2690.82V806.127C2697.29 794.093 2707.74 788.104 2722.17 788.104C2732.62 788.104 2740.03 790.6 2744.34 795.535C2748.71 800.471 2750.87 808.511 2750.87 819.546V941.211H2801.74L2801.57 810.009C2807.43 795.424 2817.99 788.104 2833.26 788.104C2843.93 788.104 2851.39 790.6 2855.59 795.591C2859.8 800.581 2861.95 808.511 2861.95 819.325V941.156H2913.04V819.103C2913.04 794.87 2908.01 776.681 2897.89 764.648C2887.77 752.559 2872.4 746.57 2851.78 746.57Z" fill="black"/>
<path d="M3049.34 746.57C3029.49 746.57 3013.4 754.001 3001.07 768.807L2999.3 750.063H2952.13V1014.63H3003V924.575C3014.84 937.995 3030.43 944.705 3049.67 944.705C3072.34 944.705 3090.31 935.832 3103.64 918.143C3116.96 900.398 3123.6 876.83 3123.6 847.44V844.778C3123.6 814.168 3117.07 790.156 3104.08 772.744C3091.03 755.331 3072.78 746.625 3049.34 746.625V746.57ZM3036.29 903.559C3020.31 903.559 3009.25 897.237 3003 884.649V806.404C3008.98 794.149 3019.98 788.049 3035.96 788.049C3047.96 788.049 3057.08 792.873 3063.33 802.522C3069.63 812.171 3072.73 825.868 3072.73 843.669C3072.73 883.595 3060.56 903.559 3036.29 903.559Z" fill="black"/>
<path d="M3208.91 750.119H3157.82V941.211H3208.91V750.119Z" fill="black"/>
<path d="M3183.37 674.37C3174.58 674.37 3167.61 676.865 3162.52 681.8C3157.44 686.736 3154.84 693.057 3154.84 700.71C3154.84 708.363 3157.44 714.851 3162.69 719.786C3167.89 724.721 3174.8 727.217 3183.37 727.217C3191.94 727.217 3198.85 724.721 3204.05 719.786C3209.25 714.851 3211.9 708.473 3211.9 700.71C3211.9 692.947 3209.3 686.736 3204.16 681.8C3199.02 676.865 3192.05 674.37 3183.37 674.37Z" fill="black"/>
<path d="M3405.04 814.223C3405.04 792.818 3398.13 776.182 3384.36 764.315C3370.59 752.503 3351.9 746.57 3328.46 746.57C3312.98 746.57 3298.99 749.232 3286.55 754.611C3274.1 759.99 3264.48 767.365 3257.68 776.792C3250.88 786.219 3247.45 796.478 3247.45 807.513H3298.32C3298.32 800.36 3300.76 794.703 3305.62 790.544C3310.49 786.441 3317.23 784.389 3325.8 784.389C3335.53 784.389 3342.67 787.051 3347.2 792.319C3351.74 797.642 3354 804.685 3354 813.502V824.426H3330.56C3302.25 824.537 3280.63 830.027 3265.64 840.841C3250.66 851.654 3243.2 867.236 3243.2 887.477C3243.2 903.947 3249.33 917.644 3261.61 928.457C3273.88 939.27 3289.37 944.705 3308 944.705C3327.74 944.705 3343.72 937.829 3356.05 924.021C3357.1 930.842 3358.81 936.553 3361.14 941.156H3412.56V938.161C3407.64 928.845 3405.09 915.148 3404.98 897.015V814.168L3405.04 814.223ZM3353.95 887.144C3350.91 892.801 3346.21 897.292 3339.85 900.675C3333.49 904.058 3326.58 905.721 3319.06 905.721C3311.54 905.721 3305.18 903.669 3300.76 899.566C3296.28 895.462 3294.07 890.194 3294.07 883.873L3294.23 880.878C3295.89 863.244 3309.44 854.371 3334.93 854.371H3353.95V887.2V887.144Z" fill="black"/>
<path d="M3556.82 767.421C3544.71 753.502 3529.39 746.57 3510.87 746.57C3487.76 746.57 3469.51 755.387 3456.18 773.077C3442.86 790.711 3436.22 814.445 3436.22 844.224C3436.22 875.777 3443.02 900.398 3456.57 918.143C3470.12 935.888 3488.14 944.705 3510.54 944.705C3530.5 944.705 3546.81 936.775 3559.47 920.86L3561.96 941.156H3607.91V669.878H3556.82V767.365V767.421ZM3556.82 883.595C3550.35 896.904 3539.29 903.559 3523.53 903.559C3511.7 903.559 3502.63 898.79 3496.44 889.252C3490.19 879.714 3487.09 865.961 3487.09 848.05C3487.09 808.068 3499.37 788.105 3523.92 788.105C3539.51 788.105 3550.51 794.759 3556.87 808.068V883.595H3556.82Z" fill="black"/>
</svg>
