<svg width="417" height="114" viewBox="0 0 417 114" fill="none" xmlns="http://www.w3.org/2000/svg">
<path d="M220.8 43.6195C219.069 42.8386 217.027 42.4521 214.657 42.4521H198.339V70.7251H205.122V61.1461H214.657C217.027 61.1461 219.069 60.7519 220.8 59.9555C222.531 59.167 223.856 58.0691 224.768 56.6775C225.681 55.2859 226.148 53.6546 226.148 51.7991C226.148 49.9436 225.688 48.3046 224.768 46.8975C223.848 45.4904 222.531 44.4003 220.8 43.6195ZM217.986 54.7756C217.097 55.5024 215.865 55.8657 214.298 55.8657H205.122V47.7248H214.298C215.865 47.7248 217.097 48.0804 217.986 48.7994C218.874 49.5184 219.319 50.5157 219.319 51.7991C219.319 53.0825 218.874 54.0489 217.986 54.7756Z" fill="black"/>
<path d="M260.811 70.7251V42.4521H254.028V53.6082H236.876V42.4521H230.093V70.7251H236.876V59.2288H254.028V70.7251H260.811Z" fill="black"/>
<path d="M285.19 70.7251V59.1824L299.192 42.4521H291.653L281.76 54.2576L271.866 42.4521H264.327L278.407 59.2675V70.7251H285.19Z" fill="black"/>
<path d="M327.937 57.9454C327.236 56.9172 326.059 56.0899 324.429 55.4792C322.792 54.8607 320.593 54.42 317.826 54.1417L311.565 53.4227C309.647 53.1985 308.314 52.8506 307.558 52.3867C306.802 51.9228 306.42 51.2657 306.42 50.4075C306.42 49.3019 307.059 48.4438 308.337 47.8407C309.616 47.2377 311.331 46.9362 313.483 46.9362C315.027 46.9362 316.368 47.1063 317.514 47.4464C318.66 47.7866 319.556 48.266 320.211 48.8767C320.858 49.4952 321.256 50.2142 321.388 51.0415H328.249C328.14 49.2092 327.454 47.6011 326.175 46.2326C324.897 44.8642 323.182 43.7973 321.03 43.0242C318.878 42.2588 316.414 41.8722 313.647 41.8722C310.879 41.8722 308.33 42.2201 306.225 42.9082C304.12 43.5963 302.498 44.6014 301.336 45.9079C300.175 47.2145 299.598 48.7994 299.598 50.6549C299.598 53.0206 300.471 54.8607 302.209 56.175C303.948 57.497 306.763 58.3552 310.645 58.7572L316.672 59.3989C318.8 59.6231 320.258 59.9865 321.038 60.4735C321.825 60.9606 322.215 61.6641 322.215 62.5687C322.215 63.7284 321.529 64.6252 320.157 65.2669C318.785 65.9086 316.921 66.2255 314.551 66.2255C312.929 66.2255 311.495 66.0323 310.263 65.638C309.023 65.2514 308.041 64.6948 307.308 63.9758C306.575 63.2568 306.131 62.4218 305.975 61.4708H299.114C299.224 63.4346 299.925 65.1432 301.227 66.6198C302.529 68.0888 304.315 69.233 306.575 70.0525C308.836 70.872 311.456 71.274 314.434 71.274C317.412 71.274 319.915 70.8875 322.098 70.1066C324.281 69.3258 325.973 68.2279 327.181 66.8054C328.39 65.3828 328.998 63.7361 328.998 61.8497C328.998 60.2648 328.647 58.9582 327.937 57.93V57.9454Z" fill="black"/>
<path d="M340.326 42.4521H333.543V70.7251H340.326V42.4521Z" fill="black"/>
<path d="M347.148 48.8767C345.713 51.0724 344.996 53.6469 344.996 56.5847C344.996 59.5226 345.713 62.0971 347.148 64.2927C348.582 66.4961 350.586 68.2047 353.151 69.4417C355.716 70.671 358.702 71.2895 362.109 71.2895C365.196 71.2895 367.94 70.787 370.349 69.7819C372.759 68.7768 374.7 67.362 376.173 65.5375C377.647 63.7129 378.536 61.61 378.824 59.2211H372.002C371.737 60.5818 371.16 61.7414 370.287 62.7078C369.414 63.6742 368.276 64.4164 366.896 64.9344C365.516 65.4524 363.902 65.7076 362.07 65.7076C359.965 65.7076 358.156 65.3365 356.62 64.5943C355.092 63.8521 353.915 62.8006 353.088 61.4245C352.262 60.056 351.849 58.4402 351.849 56.577C351.849 54.7138 352.262 53.1057 353.088 51.7295C353.915 50.3611 355.092 49.3019 356.62 48.5597C358.148 47.8175 359.965 47.4464 362.07 47.4464C363.902 47.4464 365.516 47.7093 366.896 48.235C368.276 48.7607 369.406 49.5107 370.287 50.4771C371.168 51.4435 371.737 52.5954 372.002 53.9252H378.824C378.528 51.5131 377.647 49.4024 376.173 47.5933C374.7 45.7842 372.759 44.3772 370.349 43.3721C367.94 42.367 365.196 41.8645 362.109 41.8645C358.702 41.8645 355.716 42.483 353.151 43.7123C350.586 44.9415 348.582 46.6579 347.148 48.8613V48.8767Z" fill="black"/>
<path d="M396.974 71.2895C399.898 71.2895 402.455 70.9029 404.638 70.1221C406.821 69.3412 408.513 68.2434 409.721 66.8208C410.929 65.3983 411.538 63.7515 411.538 61.8651C411.538 60.2802 411.187 58.9737 410.477 57.9454C409.776 56.9172 408.598 56.0899 406.969 55.4792C405.332 54.8607 403.133 54.42 400.365 54.1417L394.105 53.4227C392.187 53.1985 390.854 52.8506 390.098 52.3867C389.341 51.9228 388.959 51.2657 388.959 50.4075C388.959 49.3019 389.599 48.4438 390.877 47.8407C392.156 47.2377 393.871 46.9362 396.023 46.9362C397.567 46.9362 398.908 47.1063 400.054 47.4464C401.2 47.7866 402.096 48.266 402.751 48.8767C403.398 49.4952 403.796 50.2142 403.928 51.0415H410.789C410.68 49.2092 409.994 47.6011 408.715 46.2326C407.437 44.8642 405.721 43.7973 403.57 43.0242C401.418 42.2588 398.954 41.8722 396.187 41.8722C393.419 41.8722 390.869 42.2201 388.764 42.9082C386.659 43.5963 385.038 44.6014 383.876 45.9079C382.715 47.2145 382.138 48.7994 382.138 50.6549C382.138 53.0206 383.011 54.8607 384.749 56.175C386.488 57.497 389.302 58.3552 393.185 58.7572L399.212 59.3989C401.34 59.6231 402.798 59.9865 403.578 60.4735C404.365 60.9606 404.755 61.6641 404.755 62.5687C404.755 63.7284 404.069 64.6252 402.697 65.2669C401.324 65.9086 399.461 66.2255 397.091 66.2255C395.469 66.2255 394.035 66.0323 392.803 65.638C391.563 65.2514 390.581 64.6948 389.848 63.9758C389.115 63.2568 388.671 62.4218 388.515 61.4708H381.654C381.763 63.4346 382.465 65.1432 383.767 66.6198C385.069 68.0888 386.854 69.233 389.115 70.0525C391.376 70.872 393.996 71.274 396.974 71.274V71.2895Z" fill="black"/>
<path d="M223.911 97.5137C223.256 97.2354 222.508 97.0267 221.704 96.8566C222.055 96.7097 222.391 96.5551 222.695 96.3773C223.981 95.6351 224.917 94.7228 225.486 93.6404C226.055 92.558 226.343 91.4447 226.343 90.2851C226.343 88.1512 225.579 86.4736 224.051 85.252C222.523 84.0305 220.371 83.4198 217.611 83.4198H197.388L199.703 97.1813L197.388 111.693H218.375C220.582 111.693 222.422 111.353 223.88 110.672C225.345 109.992 226.452 109.064 227.209 107.881C227.965 106.698 228.347 105.353 228.347 103.846C228.347 102.439 227.988 101.186 227.271 100.096C226.554 99.0059 225.439 98.1322 223.919 97.4905L223.911 97.5137ZM218.485 89.0326C219.147 89.6202 219.483 90.3624 219.483 91.236C219.483 92.3957 219.093 93.2925 218.305 93.9342C217.518 94.5759 216.528 94.8929 215.335 94.8929H205.8L204.623 88.1435H215.616C216.863 88.1435 217.822 88.4373 218.485 89.0326ZM220.301 106.034C219.514 106.675 218.407 106.992 216.972 106.992H204.592L205.823 99.4929H216.13C217.884 99.4929 219.217 99.8408 220.122 100.529C221.026 101.217 221.478 102.16 221.478 103.335C221.478 104.51 221.089 105.392 220.301 106.034Z" fill="black"/>
<path d="M242.505 83.4275L228.503 111.7H235.722L238.568 105.74H255.143L257.989 111.7H265.208L251.206 83.4275H242.505ZM241.047 100.544L246.856 88.3677L252.664 100.544H241.047Z" fill="black"/>
<path d="M261.014 89.0867H272.942V111.708H279.686V89.0867H291.575V83.4275H261.014V89.0867Z" fill="black"/>
<path d="M292.971 89.0867H304.899V111.708H311.643V89.0867H323.532V83.4275H292.971V89.0867Z" fill="black"/>
<path d="M334.104 83.4275H327.322V111.708H353.494V106.049H334.104V83.4275Z" fill="black"/>
<path d="M364.736 100.019H382.021V95.1171H364.736L363.676 88.7466H383.058V83.4275H356.324L358.639 97.5678L356.324 111.708H383.252V106.389H363.676L364.736 100.019Z" fill="black"/>
<path d="M415.631 98.9285C414.929 97.9003 413.752 97.0731 412.122 96.4623C410.485 95.8438 408.286 95.4031 405.519 95.1248L399.258 94.4058C397.34 94.1816 396.007 93.8337 395.251 93.3698C394.495 92.9059 394.113 92.2488 394.113 91.3906C394.113 90.2851 394.752 89.4269 396.031 88.8239C397.309 88.2208 399.024 87.9193 401.176 87.9193C402.72 87.9193 404.061 88.0894 405.207 88.4296C406.353 88.7697 407.25 89.2491 407.904 89.8598C408.552 90.4783 408.949 91.1973 409.082 92.0246H415.943C415.833 90.1923 415.147 88.5842 413.869 87.2158C412.59 85.8473 410.875 84.7804 408.723 84.0073C406.571 83.2419 404.108 82.8554 401.34 82.8554C398.572 82.8554 396.023 83.2033 393.918 83.8913C391.813 84.5794 390.191 85.5845 389.03 86.891C387.868 88.1976 387.291 89.7825 387.291 91.638C387.291 94.0038 388.164 95.8438 389.903 97.1581C391.641 98.4801 394.456 99.3383 398.338 99.7403L404.365 100.382C406.493 100.606 407.951 100.97 408.731 101.457C409.518 101.944 409.908 102.647 409.908 103.552C409.908 104.711 409.222 105.608 407.85 106.25C406.478 106.892 404.614 107.209 402.244 107.209C400.623 107.209 399.188 107.015 397.956 106.621C396.717 106.235 395.734 105.678 395.002 104.959C394.269 104.24 393.824 103.405 393.668 102.454H386.808C386.917 104.418 387.618 106.126 388.92 107.603C390.222 109.072 392.008 110.216 394.269 111.036C396.53 111.855 399.149 112.257 402.127 112.257C405.106 112.257 407.608 111.871 409.791 111.09C411.974 110.309 413.666 109.211 414.874 107.789C416.083 106.366 416.691 104.719 416.691 102.833C416.691 101.248 416.34 99.9413 415.631 98.9131V98.9285Z" fill="black"/>
<path d="M149.955 30.5228V27.2525C149.955 12.6096 137.941 0.70354 123.182 0.70354C108.424 0.70354 96.4017 12.6173 96.4017 27.2525C96.4017 30.6542 99.185 33.4143 102.615 33.4143C106.046 33.4143 108.829 30.6542 108.829 27.2525C108.829 19.4131 115.261 13.0271 123.174 13.0271C131.088 13.0271 137.52 19.4053 137.52 27.2525V36.6923C137.52 40.094 140.303 42.8541 143.733 42.8541H150.196C158.102 42.8541 164.542 49.2323 164.542 57.0795C164.542 64.9267 158.11 71.3049 150.196 71.3049H143.733C140.303 71.3049 137.52 74.065 137.52 77.4667V86.9065C137.52 94.7459 131.088 101.132 123.174 101.132C115.261 101.132 108.829 94.7537 108.829 86.9065V70.7947C108.829 59.4452 99.5203 50.2142 88.0752 50.2142C83.491 50.2142 79.7566 46.5109 79.7566 41.965V26.5567C79.7644 11.9138 67.7502 0 52.9839 0C38.2177 0 26.2035 11.9138 26.2035 26.5567V29.8347C11.7023 30.1285 0 41.9263 0 56.376C0 70.8256 11.7023 82.6234 26.2113 82.9249V86.2029C26.2113 100.846 38.2255 112.76 52.9917 112.76C67.758 112.76 79.7721 100.846 79.7721 86.2029C79.7721 82.8012 76.9888 80.0412 73.5585 80.0412C70.1281 80.0412 67.3448 82.8012 67.3448 86.2029C67.3448 94.0424 60.9128 100.428 52.9995 100.428C45.0862 100.428 38.6542 94.0501 38.6542 86.2029V76.7631C38.6542 73.3614 35.871 70.6014 32.4406 70.6014H26.7882C18.8827 70.6014 12.443 64.2231 12.443 56.376C12.443 48.5288 18.8749 42.1505 26.7882 42.1505H32.4406C35.871 42.1505 38.6542 39.3905 38.6542 35.9888V26.549C38.6542 18.7095 45.0862 12.3235 52.9995 12.3235C60.9128 12.3235 67.3448 18.7018 67.3448 26.549V41.9573C67.3448 53.3067 76.6536 62.5377 88.0986 62.5377C92.6829 62.5377 96.4173 66.241 96.4173 70.7869V86.8988C96.4173 101.542 108.431 113.455 123.198 113.455C137.964 113.455 149.97 101.542 149.97 86.8988V83.6285H150.212C164.978 83.6285 176.985 71.7147 176.985 57.0718C176.985 42.4289 164.971 30.5228 150.212 30.5228H149.955Z" fill="#8045FF"/>
<path d="M233.38 28.8796H226.425L223.697 22.7956H207.714L204.986 28.8796H198.031L211.498 0H219.913L233.38 28.8796ZM215.706 5.02505L210.115 17.4818H221.315L215.706 5.02505Z" fill="black"/>
<path d="M242.995 0V23.1037H261.706V28.8796H236.482V0H242.995Z" fill="black"/>
<path d="M285.585 22.6223L295.748 0H305.776V28.8796H299.571V5.85293L288.928 28.8796H282.185L271.542 5.94919V28.8796H265.336V0H275.365L285.585 22.6223Z" fill="black"/>
<path d="M344.22 28.8796H337.265L334.537 22.7956H318.553L315.825 28.8796H308.871L322.338 0H330.753L344.22 28.8796ZM326.545 5.02505L320.955 17.4818H332.155L326.545 5.02505Z" fill="black"/>
<path d="M340.195 0H369.627V5.77591H358.177V28.8796H351.645V5.77591H340.195V0Z" fill="black"/>
<path d="M397.033 0H404.314L390.808 17.0967V28.8796H384.277V17.1737L370.713 0H377.995L387.523 12.0524L397.033 0Z" fill="black"/>
</svg>
