<svg width="3154" height="822" viewBox="0 0 3154 822" fill="none" xmlns="http://www.w3.org/2000/svg">
<g filter="url(#filter0_d_5707_4578)">
<rect x="80" y="70" width="2994" height="662" rx="8" fill="white"/>
<path d="M531.891 376.139C555.09 348.344 566.391 297.773 562.052 269.333C558.961 249.05 548.019 240.435 536.018 242.232C511.784 245.86 503.088 289.842 509.807 333.902C511.869 347.421 515.229 363.134 519.864 374.6C512.804 383.526 504.336 389.562 494.926 390.97C487.16 392.133 480.347 390.053 474.659 385.896C468.9 381.275 464.339 375.043 461.177 366.934C476.396 338.902 484.156 299.83 480.529 276.051C479 266.028 476.122 259.782 471.753 256.381C468.846 254.672 465.339 253.765 461.574 254.329C440.397 257.499 435.524 299.718 441.178 336.782C442.991 348.673 446.073 359.419 449.563 366.524C419.559 425.031 363.304 398.518 390.758 343.554C391.229 342.61 391.177 341.585 391 340.419C390.537 337.388 388.102 335.606 385.276 336.03C383.629 336.277 381.875 337.267 381.128 338.795C363.002 375.763 380.871 413.766 418.603 408.119C434.132 405.795 446.51 392.257 455.141 377.85C458.467 385.461 471.244 404.531 495.714 400.87C506.772 399.213 516.214 393.268 524.362 385.134L524.523 385.442L526.756 381.841L531.891 376.139ZM520.397 332.316C514.282 292.222 521.947 254.114 537.242 251.824C548.3 250.169 551.239 267.852 551.701 270.882C555.646 296.758 545.347 338.121 527.704 366.036C525 356.187 522.387 345.371 520.397 332.316ZM451.41 332.868C446.226 295.733 452.879 265.169 462.761 263.692C467.465 262.986 469.679 274.339 470.176 277.602C473.09 296.717 467.454 327.602 456.234 355.038C453.886 347.519 452.584 340.56 451.41 332.868Z" fill="#B0CB21"/>
<path d="M530.124 372.474C541.445 429.715 609.391 397.781 636.355 344.775C681.221 271.685 669.662 312.977 644.027 348.709C614.235 404.561 542.614 441.856 523.477 381.738L530.124 372.474Z" fill="#B0CB21"/>
<path fill-rule="evenodd" clip-rule="evenodd" d="M612.554 317.435L654.528 310.732C657.182 310.423 656.692 310.154 658.614 307.482C661.781 303.076 666.292 297.285 670.371 294.028C671.928 292.785 677.292 289.537 679.202 289.888C680.31 291.742 679.235 298.344 678.17 301.211C676.629 305.367 674.182 309.7 671.808 313.604C670.168 316.301 668.717 317.657 669.009 319.532C669.441 322.31 672.48 333.01 672.832 335.477C673.126 337.526 673.785 338.812 674.082 340.669L680.899 369.81C680.923 370.829 675.664 378.279 675.446 378.483L675.264 378.637C675.202 378.686 675.128 378.723 675.07 378.762C675.015 378.799 674.913 378.834 674.867 378.861C673.823 379.476 671.298 373.455 670.719 372.401C668.2 367.814 656.976 345.202 654.942 343.817C651.421 341.421 648.878 345.695 647.559 347.429C643.389 352.911 638.707 358.608 634.787 364.229C635.187 367.369 635.897 370.324 636.465 373.332C636.939 375.836 637.248 375.322 635.308 378.172C634.311 379.637 632.814 382.267 631.677 383.209C629.714 382.133 627.668 375.602 625.988 373.692C624.355 374.475 621.384 378.473 619.622 378.287C618.68 376.796 621.097 373.715 621.459 370.71C620.413 370.297 617.272 370.189 615.896 370.092C608.822 369.598 610.855 369.353 610.782 369.274C609.912 368.359 612.734 365.305 613.691 363.872C615.616 360.988 615.257 361.464 617.779 360.934C620.264 360.412 624.149 359.272 626.65 359.324L639.435 337.772C640.163 336.122 640.16 334.477 638.828 333.231C637.236 331.745 635.363 331.976 633.676 331.799L599.547 328.771C596.241 328.549 598.197 326.926 599.645 324.786C604.313 317.886 601.838 319.19 610.309 317.924C611.134 317.8 611.733 317.559 612.554 317.435Z" fill="#B0CB21"/>
<path d="M741.707 319.657H750.734L771.959 371.021H772.691L793.916 319.657H802.942V381.535H795.867V334.522H795.257L775.74 381.535H768.909L749.391 334.522H748.781V381.535H741.707V319.657ZM820.668 381.535H812.738L835.672 319.657H843.478L866.411 381.535H858.483L839.818 329.446H839.331L820.668 381.535ZM823.595 357.364H855.554V364.011H823.595V357.364ZM876.139 381.535V319.657H897.242C902.121 319.657 906.126 320.483 909.257 322.135C912.388 323.766 914.705 326.012 916.21 328.872C917.715 331.733 918.467 334.986 918.467 338.631C918.467 342.277 917.715 345.51 916.21 348.33C914.705 351.15 912.399 353.366 909.288 354.977C906.178 356.568 902.204 357.364 897.364 357.364H880.286V350.596H897.12C900.455 350.596 903.138 350.113 905.172 349.146C907.224 348.179 908.708 346.809 909.623 345.037C910.559 343.244 911.027 341.109 911.027 338.631C911.027 336.154 910.559 333.989 909.623 332.136C908.689 330.282 907.195 328.852 905.141 327.845C903.086 326.818 900.373 326.304 896.998 326.304H883.703V381.535H876.139ZM905.537 353.738L920.907 381.535H912.124L896.998 353.738H905.537ZM923.606 319.657H932.267L949.588 348.542H950.32L967.641 319.657H976.302L953.736 356.035V381.535H946.172V356.035L923.606 319.657Z" fill="#B0CB21"/>
<path d="M1006.82 326.304V319.657H1053.66V326.304H1034.02V381.535H1026.46V326.304H1006.82ZM1065.33 381.535V319.657H1086.44C1091.32 319.657 1095.32 320.483 1098.45 322.135C1101.58 323.766 1103.9 326.012 1105.41 328.872C1106.91 331.733 1107.66 334.986 1107.66 338.631C1107.66 342.277 1106.91 345.51 1105.41 348.33C1103.9 351.15 1101.59 353.366 1098.48 354.977C1095.37 356.568 1091.4 357.364 1086.56 357.364H1069.48V350.596H1086.32C1089.65 350.596 1092.33 350.113 1094.37 349.146C1096.42 348.179 1097.9 346.809 1098.82 345.037C1099.75 343.244 1100.22 341.109 1100.22 338.631C1100.22 336.154 1099.75 333.989 1098.82 332.136C1097.88 330.282 1096.39 328.852 1094.33 327.845C1092.28 326.818 1089.57 326.304 1086.19 326.304H1072.9V381.535H1065.33ZM1094.73 353.738L1110.1 381.535H1101.32L1086.19 353.738H1094.73ZM1122.83 381.535H1114.9L1137.83 319.657H1145.64L1168.57 381.535H1160.64L1141.98 329.446H1141.49L1122.83 381.535ZM1125.75 357.364H1157.71V364.011H1125.75V357.364ZM1174.99 319.657L1193.53 371.746H1194.26L1212.8 319.657H1220.73L1197.8 381.535H1189.99L1167.06 319.657H1174.99ZM1230.46 381.535V319.657H1268.15V326.304H1238.02V347.212H1266.2V353.859H1238.02V374.888H1268.64V381.535H1230.46ZM1281.78 381.535V319.657H1289.35V374.888H1318.38V381.535H1281.78Z" fill="#5E5A71"/>
<path d="M511.091 507.321V502.321H546V507.321H531.364V548.866H525.727V507.321H511.091ZM553.426 561.957C552.517 561.957 551.706 561.881 550.994 561.73C550.282 561.593 549.79 561.457 549.517 561.321L550.881 556.593C552.184 556.927 553.335 557.048 554.335 556.957C555.335 556.866 556.222 556.419 556.994 555.616C557.782 554.828 558.502 553.548 559.153 551.775L560.153 549.048L547.244 513.957H553.062L562.699 541.775H563.062L572.699 513.957H578.517L563.699 553.957C563.032 555.76 562.206 557.253 561.222 558.434C560.237 559.631 559.093 560.518 557.79 561.093C556.502 561.669 555.047 561.957 553.426 561.957ZM585.597 561.957V513.957H590.778V519.503H591.415C591.809 518.897 592.354 518.124 593.051 517.184C593.763 516.23 594.778 515.381 596.097 514.639C597.43 513.881 599.233 513.503 601.506 513.503C604.445 513.503 607.036 514.237 609.278 515.707C611.521 517.177 613.271 519.26 614.528 521.957C615.786 524.654 616.415 527.836 616.415 531.503C616.415 535.2 615.786 538.404 614.528 541.116C613.271 543.813 611.528 545.904 609.301 547.389C607.074 548.859 604.506 549.593 601.597 549.593C599.354 549.593 597.559 549.222 596.21 548.48C594.862 547.722 593.824 546.866 593.097 545.912C592.369 544.942 591.809 544.139 591.415 543.503H590.96V561.957H585.597ZM590.869 531.412C590.869 534.048 591.256 536.374 592.028 538.389C592.801 540.389 593.93 541.957 595.415 543.093C596.9 544.215 598.718 544.775 600.869 544.775C603.112 544.775 604.983 544.184 606.483 543.003C607.998 541.806 609.134 540.2 609.892 538.184C610.665 536.154 611.051 533.897 611.051 531.412C611.051 528.957 610.672 526.745 609.915 524.775C609.172 522.79 608.044 521.222 606.528 520.071C605.028 518.904 603.142 518.321 600.869 518.321C598.688 518.321 596.854 518.874 595.369 519.98C593.884 521.071 592.763 522.601 592.006 524.571C591.248 526.525 590.869 528.806 590.869 531.412ZM629.96 540.957L646.778 513.957H652.96V548.866H647.597V521.866L630.869 548.866H624.597V513.957H629.96V540.957ZM676.966 549.593C673.693 549.593 670.875 548.821 668.511 547.275C666.148 545.73 664.33 543.601 663.057 540.889C661.784 538.177 661.148 535.078 661.148 531.593C661.148 528.048 661.799 524.919 663.102 522.207C664.42 519.48 666.254 517.351 668.602 515.821C670.966 514.275 673.723 513.503 676.875 513.503C679.33 513.503 681.542 513.957 683.511 514.866C685.481 515.775 687.095 517.048 688.352 518.684C689.61 520.321 690.39 522.23 690.693 524.412H685.33C684.92 522.821 684.011 521.412 682.602 520.184C681.208 518.942 679.33 518.321 676.966 518.321C674.875 518.321 673.042 518.866 671.466 519.957C669.905 521.033 668.686 522.556 667.807 524.525C666.943 526.48 666.511 528.775 666.511 531.412C666.511 534.109 666.936 536.457 667.784 538.457C668.648 540.457 669.86 542.01 671.42 543.116C672.996 544.222 674.845 544.775 676.966 544.775C678.36 544.775 679.625 544.533 680.761 544.048C681.898 543.563 682.86 542.866 683.648 541.957C684.436 541.048 684.996 539.957 685.33 538.684H690.693C690.39 540.745 689.64 542.601 688.443 544.253C687.261 545.889 685.693 547.192 683.739 548.162C681.799 549.116 679.542 549.593 676.966 549.593ZM695.784 518.957V513.957H724.148V518.957H712.693V548.866H707.33V518.957H695.784ZM737.335 540.957L754.153 513.957H760.335V548.866H754.972V521.866L738.244 548.866H731.972V513.957H737.335V540.957ZM797.068 513.957V548.866H791.705V513.957H797.068ZM794.977 530.593V535.593C793.765 536.048 792.561 536.45 791.364 536.798C790.167 537.131 788.909 537.397 787.591 537.593C786.273 537.775 784.826 537.866 783.25 537.866C779.295 537.866 776.121 536.798 773.727 534.662C771.348 532.525 770.159 529.321 770.159 525.048V513.866H775.523V525.048C775.523 526.836 775.864 528.306 776.545 529.457C777.227 530.609 778.152 531.465 779.318 532.025C780.485 532.586 781.795 532.866 783.25 532.866C785.523 532.866 787.576 532.662 789.409 532.253C791.258 531.828 793.114 531.275 794.977 530.593ZM821.545 549.593C818.182 549.593 815.28 548.851 812.841 547.366C810.417 545.866 808.545 543.775 807.227 541.093C805.924 538.397 805.273 535.26 805.273 531.684C805.273 528.109 805.924 524.957 807.227 522.23C808.545 519.487 810.379 517.351 812.727 515.821C815.091 514.275 817.848 513.503 821 513.503C822.818 513.503 824.614 513.806 826.386 514.412C828.159 515.018 829.773 516.003 831.227 517.366C832.682 518.715 833.841 520.503 834.705 522.73C835.568 524.957 836 527.7 836 530.957V533.23H809.091V528.593H830.545C830.545 526.624 830.152 524.866 829.364 523.321C828.591 521.775 827.485 520.556 826.045 519.662C824.621 518.768 822.939 518.321 821 518.321C818.864 518.321 817.015 518.851 815.455 519.912C813.909 520.957 812.72 522.321 811.886 524.003C811.053 525.684 810.636 527.487 810.636 529.412V532.503C810.636 535.139 811.091 537.374 812 539.207C812.924 541.025 814.205 542.412 815.841 543.366C817.477 544.306 819.379 544.775 821.545 544.775C822.955 544.775 824.227 544.578 825.364 544.184C826.515 543.775 827.508 543.169 828.341 542.366C829.174 541.548 829.818 540.533 830.273 539.321L835.455 540.775C834.909 542.533 833.992 544.078 832.705 545.412C831.417 546.73 829.826 547.76 827.932 548.503C826.038 549.23 823.909 549.593 821.545 549.593ZM858.341 549.593C855.068 549.593 852.25 548.821 849.886 547.275C847.523 545.73 845.705 543.601 844.432 540.889C843.159 538.177 842.523 535.078 842.523 531.593C842.523 528.048 843.174 524.919 844.477 522.207C845.795 519.48 847.629 517.351 849.977 515.821C852.341 514.275 855.098 513.503 858.25 513.503C860.705 513.503 862.917 513.957 864.886 514.866C866.856 515.775 868.47 517.048 869.727 518.684C870.985 520.321 871.765 522.23 872.068 524.412H866.705C866.295 522.821 865.386 521.412 863.977 520.184C862.583 518.942 860.705 518.321 858.341 518.321C856.25 518.321 854.417 518.866 852.841 519.957C851.28 521.033 850.061 522.556 849.182 524.525C848.318 526.48 847.886 528.775 847.886 531.412C847.886 534.109 848.311 536.457 849.159 538.457C850.023 540.457 851.235 542.01 852.795 543.116C854.371 544.222 856.22 544.775 858.341 544.775C859.735 544.775 861 544.533 862.136 544.048C863.273 543.563 864.235 542.866 865.023 541.957C865.811 541.048 866.371 539.957 866.705 538.684H872.068C871.765 540.745 871.015 542.601 869.818 544.253C868.636 545.889 867.068 547.192 865.114 548.162C863.174 549.116 860.917 549.593 858.341 549.593ZM879.909 548.866V513.957H885.273V529.139H888.818L901.364 513.957H908.273L894.182 530.775L908.455 548.866H901.545L890.091 534.139H885.273V548.866H879.909ZM927.028 549.593C923.877 549.593 921.112 548.843 918.733 547.343C916.369 545.843 914.521 543.745 913.188 541.048C911.869 538.351 911.21 535.2 911.21 531.593C911.21 527.957 911.869 524.783 913.188 522.071C914.521 519.359 916.369 517.253 918.733 515.753C921.112 514.253 923.877 513.503 927.028 513.503C930.18 513.503 932.938 514.253 935.301 515.753C937.68 517.253 939.528 519.359 940.847 522.071C942.18 524.783 942.847 527.957 942.847 531.593C942.847 535.2 942.18 538.351 940.847 541.048C939.528 543.745 937.68 545.843 935.301 547.343C932.938 548.843 930.18 549.593 927.028 549.593ZM927.028 544.775C929.422 544.775 931.392 544.162 932.938 542.934C934.483 541.707 935.627 540.093 936.369 538.093C937.112 536.093 937.483 533.927 937.483 531.593C937.483 529.26 937.112 527.086 936.369 525.071C935.627 523.056 934.483 521.427 932.938 520.184C931.392 518.942 929.422 518.321 927.028 518.321C924.634 518.321 922.665 518.942 921.119 520.184C919.574 521.427 918.43 523.056 917.688 525.071C916.945 527.086 916.574 529.26 916.574 531.593C916.574 533.927 916.945 536.093 917.688 538.093C918.43 540.093 919.574 541.707 921.119 542.934C922.665 544.162 924.634 544.775 927.028 544.775ZM965.67 549.593C962.307 549.593 959.405 548.851 956.966 547.366C954.542 545.866 952.67 543.775 951.352 541.093C950.049 538.397 949.398 535.26 949.398 531.684C949.398 528.109 950.049 524.957 951.352 522.23C952.67 519.487 954.504 517.351 956.852 515.821C959.216 514.275 961.973 513.503 965.125 513.503C966.943 513.503 968.739 513.806 970.511 514.412C972.284 515.018 973.898 516.003 975.352 517.366C976.807 518.715 977.966 520.503 978.83 522.73C979.693 524.957 980.125 527.7 980.125 530.957V533.23H953.216V528.593H974.67C974.67 526.624 974.277 524.866 973.489 523.321C972.716 521.775 971.61 520.556 970.17 519.662C968.746 518.768 967.064 518.321 965.125 518.321C962.989 518.321 961.14 518.851 959.58 519.912C958.034 520.957 956.845 522.321 956.011 524.003C955.178 525.684 954.761 527.487 954.761 529.412V532.503C954.761 535.139 955.216 537.374 956.125 539.207C957.049 541.025 958.33 542.412 959.966 543.366C961.602 544.306 963.504 544.775 965.67 544.775C967.08 544.775 968.352 544.578 969.489 544.184C970.64 543.775 971.633 543.169 972.466 542.366C973.299 541.548 973.943 540.533 974.398 539.321L979.58 540.775C979.034 542.533 978.117 544.078 976.83 545.412C975.542 546.73 973.951 547.76 972.057 548.503C970.163 549.23 968.034 549.593 965.67 549.593ZM1016.56 549.684C1014.34 549.684 1012.34 549.268 1010.53 548.434C1008.73 547.586 1007.3 546.366 1006.24 544.775C1005.18 543.169 1004.65 541.23 1004.65 538.957C1004.65 536.957 1005.04 535.336 1005.83 534.093C1006.62 532.836 1007.67 531.851 1008.99 531.139C1010.31 530.427 1011.76 529.897 1013.35 529.548C1014.96 529.184 1016.57 528.897 1018.19 528.684C1020.31 528.412 1022.03 528.207 1023.35 528.071C1024.69 527.919 1025.66 527.669 1026.26 527.321C1026.88 526.972 1027.19 526.366 1027.19 525.503V525.321C1027.19 523.078 1026.58 521.336 1025.35 520.093C1024.14 518.851 1022.3 518.23 1019.83 518.23C1017.27 518.23 1015.26 518.79 1013.81 519.912C1012.35 521.033 1011.33 522.23 1010.74 523.503L1005.65 521.684C1006.56 519.563 1007.77 517.912 1009.28 516.73C1010.81 515.533 1012.48 514.7 1014.28 514.23C1016.1 513.745 1017.89 513.503 1019.65 513.503C1020.77 513.503 1022.06 513.639 1023.51 513.912C1024.98 514.169 1026.4 514.707 1027.76 515.525C1029.14 516.343 1030.28 517.578 1031.19 519.23C1032.1 520.881 1032.56 523.093 1032.56 525.866V548.866H1027.19V544.139H1026.92C1026.56 544.897 1025.95 545.707 1025.1 546.571C1024.25 547.434 1023.13 548.169 1021.72 548.775C1020.31 549.381 1018.59 549.684 1016.56 549.684ZM1017.38 544.866C1019.5 544.866 1021.28 544.45 1022.74 543.616C1024.21 542.783 1025.31 541.707 1026.06 540.389C1026.81 539.071 1027.19 537.684 1027.19 536.23V531.321C1026.97 531.593 1026.47 531.843 1025.69 532.071C1024.94 532.283 1024.06 532.472 1023.06 532.639C1022.07 532.79 1021.11 532.927 1020.17 533.048C1019.25 533.154 1018.5 533.245 1017.92 533.321C1016.53 533.503 1015.22 533.798 1014.01 534.207C1012.81 534.601 1011.84 535.2 1011.1 536.003C1010.38 536.79 1010.01 537.866 1010.01 539.23C1010.01 541.093 1010.7 542.503 1012.08 543.457C1013.47 544.397 1015.24 544.866 1017.38 544.866ZM1063.89 513.957V518.957H1047.71V548.866H1042.35V513.957H1063.89ZM1084.55 549.593C1081.18 549.593 1078.28 548.851 1075.84 547.366C1073.42 545.866 1071.55 543.775 1070.23 541.093C1068.92 538.397 1068.27 535.26 1068.27 531.684C1068.27 528.109 1068.92 524.957 1070.23 522.23C1071.55 519.487 1073.38 517.351 1075.73 515.821C1078.09 514.275 1080.85 513.503 1084 513.503C1085.82 513.503 1087.61 513.806 1089.39 514.412C1091.16 515.018 1092.77 516.003 1094.23 517.366C1095.68 518.715 1096.84 520.503 1097.7 522.73C1098.57 524.957 1099 527.7 1099 530.957V533.23H1072.09V528.593H1093.55C1093.55 526.624 1093.15 524.866 1092.36 523.321C1091.59 521.775 1090.48 520.556 1089.05 519.662C1087.62 518.768 1085.94 518.321 1084 518.321C1081.86 518.321 1080.02 518.851 1078.45 519.912C1076.91 520.957 1075.72 522.321 1074.89 524.003C1074.05 525.684 1073.64 527.487 1073.64 529.412V532.503C1073.64 535.139 1074.09 537.374 1075 539.207C1075.92 541.025 1077.2 542.412 1078.84 543.366C1080.48 544.306 1082.38 544.775 1084.55 544.775C1085.95 544.775 1087.23 544.578 1088.36 544.184C1089.52 543.775 1090.51 543.169 1091.34 542.366C1092.17 541.548 1092.82 540.533 1093.27 539.321L1098.45 540.775C1097.91 542.533 1096.99 544.078 1095.7 545.412C1094.42 546.73 1092.83 547.76 1090.93 548.503C1089.04 549.23 1086.91 549.593 1084.55 549.593ZM1130.52 528.957V533.957H1111.25V528.957H1130.52ZM1112.52 513.957V548.866H1107.16V513.957H1112.52ZM1134.61 513.957V548.866H1129.25V513.957H1134.61ZM1139.66 518.957V513.957H1168.02V518.957H1156.57V548.866H1151.2V518.957H1139.66ZM1188.22 549.593C1184.94 549.593 1182.13 548.821 1179.76 547.275C1177.4 545.73 1175.58 543.601 1174.31 540.889C1173.03 538.177 1172.4 535.078 1172.4 531.593C1172.4 528.048 1173.05 524.919 1174.35 522.207C1175.67 519.48 1177.5 517.351 1179.85 515.821C1182.22 514.275 1184.97 513.503 1188.12 513.503C1190.58 513.503 1192.79 513.957 1194.76 514.866C1196.73 515.775 1198.34 517.048 1199.6 518.684C1200.86 520.321 1201.64 522.23 1201.94 524.412H1196.58C1196.17 522.821 1195.26 521.412 1193.85 520.184C1192.46 518.942 1190.58 518.321 1188.22 518.321C1186.13 518.321 1184.29 518.866 1182.72 519.957C1181.16 521.033 1179.94 522.556 1179.06 524.525C1178.19 526.48 1177.76 528.775 1177.76 531.412C1177.76 534.109 1178.19 536.457 1179.03 538.457C1179.9 540.457 1181.11 542.01 1182.67 543.116C1184.25 544.222 1186.09 544.775 1188.22 544.775C1189.61 544.775 1190.88 544.533 1192.01 544.048C1193.15 543.563 1194.11 542.866 1194.9 541.957C1195.69 541.048 1196.25 539.957 1196.58 538.684H1201.94C1201.64 540.745 1200.89 542.601 1199.69 544.253C1198.51 545.889 1196.94 547.192 1194.99 548.162C1193.05 549.116 1190.79 549.593 1188.22 549.593ZM1207.03 518.957V513.957H1235.4V518.957H1223.94V548.866H1218.58V518.957H1207.03ZM1243.22 548.866V513.957H1257.49C1261.25 513.957 1264.24 514.806 1266.45 516.503C1268.66 518.2 1269.77 520.442 1269.77 523.23C1269.77 525.351 1269.14 526.995 1267.88 528.162C1266.62 529.313 1265.01 530.093 1263.04 530.503C1264.33 530.684 1265.58 531.139 1266.79 531.866C1268.02 532.593 1269.03 533.593 1269.84 534.866C1270.64 536.124 1271.04 537.669 1271.04 539.503C1271.04 541.29 1270.59 542.889 1269.68 544.298C1268.77 545.707 1267.46 546.821 1265.77 547.639C1264.07 548.457 1262.04 548.866 1259.68 548.866H1243.22ZM1248.31 543.957H1259.68C1261.52 543.957 1262.97 543.518 1264.02 542.639C1265.06 541.76 1265.59 540.563 1265.59 539.048C1265.59 537.245 1265.06 535.828 1264.02 534.798C1262.97 533.753 1261.52 533.23 1259.68 533.23H1248.31V543.957ZM1248.31 528.593H1257.49C1258.93 528.593 1260.17 528.397 1261.2 528.003C1262.23 527.593 1263.02 527.018 1263.56 526.275C1264.12 525.518 1264.4 524.624 1264.4 523.593C1264.4 522.124 1263.79 520.972 1262.56 520.139C1261.34 519.29 1259.65 518.866 1257.49 518.866H1248.31V528.593ZM1293.34 549.593C1290.19 549.593 1287.42 548.843 1285.05 547.343C1282.68 545.843 1280.83 543.745 1279.5 541.048C1278.18 538.351 1277.52 535.2 1277.52 531.593C1277.52 527.957 1278.18 524.783 1279.5 522.071C1280.83 519.359 1282.68 517.253 1285.05 515.753C1287.42 514.253 1290.19 513.503 1293.34 513.503C1296.49 513.503 1299.25 514.253 1301.61 515.753C1303.99 517.253 1305.84 519.359 1307.16 522.071C1308.49 524.783 1309.16 527.957 1309.16 531.593C1309.16 535.2 1308.49 538.351 1307.16 541.048C1305.84 543.745 1303.99 545.843 1301.61 547.343C1299.25 548.843 1296.49 549.593 1293.34 549.593ZM1293.34 544.775C1295.73 544.775 1297.7 544.162 1299.25 542.934C1300.8 541.707 1301.94 540.093 1302.68 538.093C1303.42 536.093 1303.8 533.927 1303.8 531.593C1303.8 529.26 1303.42 527.086 1302.68 525.071C1301.94 523.056 1300.8 521.427 1299.25 520.184C1297.7 518.942 1295.73 518.321 1293.34 518.321C1290.95 518.321 1288.98 518.942 1287.43 520.184C1285.89 521.427 1284.74 523.056 1284 525.071C1283.26 527.086 1282.89 529.26 1282.89 531.593C1282.89 533.927 1283.26 536.093 1284 538.093C1284.74 540.093 1285.89 541.707 1287.43 542.934C1288.98 544.162 1290.95 544.775 1293.34 544.775Z" fill="black"/>
<path d="M1900.06 261.727V216.727H1907.7V261.727H1900.06ZM1881.38 243.045V235.409H1926.38V243.045H1881.38ZM1942.78 274L1974.01 212.227V211.682H1938.01V204.182H1982.73V212.091L1951.64 274H1942.78ZM2025.44 239.091C2025.44 230.5 2026.55 222.602 2028.78 215.398C2031.03 208.17 2034.24 201.523 2038.39 195.455H2045.49C2043.85 197.705 2042.32 200.477 2040.88 203.773C2039.47 207.045 2038.24 210.648 2037.17 214.58C2036.1 218.489 2035.26 222.534 2034.64 226.716C2034.05 230.898 2033.76 235.023 2033.76 239.091C2033.76 244.5 2034.28 249.989 2035.33 255.557C2036.37 261.125 2037.78 266.295 2039.55 271.068C2041.33 275.841 2043.3 279.727 2045.49 282.727H2038.39C2034.24 276.659 2031.03 270.023 2028.78 262.818C2026.55 255.591 2025.44 247.682 2025.44 239.091ZM2059.4 274L2090.63 212.227V211.682H2054.63V204.182H2099.36V212.091L2068.27 274H2059.4ZM2116.12 274L2147.35 212.227V211.682H2111.35V204.182H2156.08V212.091L2124.99 274H2116.12ZM2172.84 274L2204.07 212.227V211.682H2168.07V204.182H2212.8V212.091L2181.7 274H2172.84ZM2242.82 239.091C2242.82 247.682 2241.7 255.591 2239.45 262.818C2237.22 270.023 2234.03 276.659 2229.87 282.727H2222.78C2224.41 280.477 2225.93 277.705 2227.34 274.409C2228.78 271.136 2230.03 267.545 2231.09 263.636C2232.16 259.705 2232.99 255.648 2233.58 251.466C2234.2 247.261 2234.5 243.136 2234.5 239.091C2234.5 233.682 2233.98 228.193 2232.93 222.625C2231.89 217.057 2230.48 211.886 2228.71 207.114C2226.93 202.341 2224.96 198.455 2222.78 195.455H2229.87C2234.03 201.523 2237.22 208.17 2239.45 215.398C2241.7 222.602 2242.82 230.5 2242.82 239.091ZM2309.1 274.955C2305.1 274.955 2301.5 274.159 2298.3 272.568C2295.09 270.977 2292.52 268.795 2290.59 266.023C2288.66 263.25 2287.6 260.091 2287.42 256.545H2295.6C2295.92 259.705 2297.35 262.318 2299.9 264.386C2302.47 266.432 2305.53 267.455 2309.1 267.455C2311.97 267.455 2314.51 266.784 2316.74 265.443C2318.99 264.102 2320.75 262.261 2322.02 259.92C2323.32 257.557 2323.97 254.886 2323.97 251.909C2323.97 248.864 2323.3 246.148 2321.95 243.761C2320.64 241.352 2318.82 239.455 2316.5 238.068C2314.18 236.682 2311.53 235.977 2308.56 235.955C2306.42 235.932 2304.23 236.261 2301.98 236.943C2299.73 237.602 2297.87 238.455 2296.42 239.5L2288.51 238.545L2292.74 204.182H2329.01V211.682H2299.83L2297.37 232.273H2297.78C2299.22 231.136 2301.01 230.193 2303.17 229.443C2305.33 228.693 2307.58 228.318 2309.92 228.318C2314.19 228.318 2318 229.341 2321.34 231.386C2324.7 233.409 2327.34 236.182 2329.25 239.705C2331.18 243.227 2332.15 247.25 2332.15 251.773C2332.15 256.227 2331.15 260.205 2329.15 263.705C2327.17 267.182 2324.44 269.932 2320.97 271.955C2317.49 273.955 2313.53 274.955 2309.1 274.955ZM2369.28 274.955C2364.78 274.955 2360.77 274.182 2357.25 272.636C2353.75 271.091 2350.96 268.943 2348.89 266.193C2346.85 263.42 2345.74 260.205 2345.55 256.545H2354.14C2354.33 258.795 2355.1 260.739 2356.46 262.375C2357.83 263.989 2359.61 265.239 2361.82 266.125C2364.02 267.011 2366.46 267.455 2369.14 267.455C2372.14 267.455 2374.8 266.932 2377.12 265.886C2379.44 264.841 2381.26 263.386 2382.58 261.523C2383.89 259.659 2384.55 257.5 2384.55 255.045C2384.55 252.477 2383.92 250.216 2382.64 248.261C2381.37 246.284 2379.51 244.739 2377.05 243.625C2374.6 242.511 2371.6 241.955 2368.05 241.955H2362.46V234.455H2368.05C2370.83 234.455 2373.26 233.955 2375.35 232.955C2377.46 231.955 2379.11 230.545 2380.29 228.727C2381.5 226.909 2382.1 224.773 2382.1 222.318C2382.1 219.955 2381.58 217.898 2380.53 216.148C2379.49 214.398 2378.01 213.034 2376.1 212.057C2374.21 211.08 2371.99 210.591 2369.42 210.591C2367.01 210.591 2364.74 211.034 2362.6 211.92C2360.49 212.784 2358.76 214.045 2357.42 215.705C2356.08 217.341 2355.35 219.318 2355.24 221.636H2347.05C2347.19 217.977 2348.29 214.773 2350.36 212.023C2352.43 209.25 2355.13 207.091 2358.47 205.545C2361.84 204 2365.53 203.227 2369.55 203.227C2373.87 203.227 2377.58 204.102 2380.67 205.852C2383.76 207.58 2386.13 209.864 2387.79 212.705C2389.45 215.545 2390.28 218.614 2390.28 221.909C2390.28 225.841 2389.25 229.193 2387.18 231.966C2385.13 234.739 2382.35 236.659 2378.83 237.727V238.273C2383.24 239 2386.68 240.875 2389.16 243.898C2391.63 246.898 2392.87 250.614 2392.87 255.045C2392.87 258.841 2391.84 262.25 2389.77 265.273C2387.72 268.273 2384.93 270.636 2381.38 272.364C2377.84 274.091 2373.8 274.955 2369.28 274.955ZM2429.04 203.227C2431.91 203.25 2434.77 203.795 2437.63 204.864C2440.5 205.932 2443.11 207.705 2445.47 210.182C2447.84 212.636 2449.74 215.989 2451.17 220.239C2452.6 224.489 2453.32 229.818 2453.32 236.227C2453.32 242.432 2452.72 247.943 2451.54 252.761C2450.38 257.557 2448.7 261.602 2446.5 264.898C2444.32 268.193 2441.66 270.693 2438.52 272.398C2435.41 274.102 2431.88 274.955 2427.95 274.955C2424.04 274.955 2420.55 274.182 2417.49 272.636C2414.44 271.068 2411.94 268.898 2409.99 266.125C2408.05 263.33 2406.82 260.091 2406.27 256.409H2414.59C2415.34 259.614 2416.83 262.261 2419.05 264.352C2421.3 266.42 2424.27 267.455 2427.95 267.455C2433.34 267.455 2437.59 265.102 2440.7 260.398C2443.84 255.693 2445.41 249.045 2445.41 240.455H2444.86C2443.59 242.364 2442.08 244.011 2440.33 245.398C2438.58 246.784 2436.63 247.852 2434.5 248.602C2432.36 249.352 2430.09 249.727 2427.68 249.727C2423.68 249.727 2420.01 248.739 2416.67 246.761C2413.35 244.761 2410.69 242.023 2408.69 238.545C2406.71 235.045 2405.72 231.045 2405.72 226.545C2405.72 222.273 2406.68 218.364 2408.59 214.818C2410.52 211.25 2413.22 208.409 2416.7 206.295C2420.2 204.182 2424.32 203.159 2429.04 203.227ZM2429.04 210.727C2426.18 210.727 2423.6 211.443 2421.3 212.875C2419.03 214.284 2417.22 216.193 2415.88 218.602C2414.57 220.989 2413.91 223.636 2413.91 226.545C2413.91 229.455 2414.54 232.102 2415.82 234.489C2417.11 236.852 2418.87 238.739 2421.1 240.148C2423.35 241.534 2425.91 242.227 2428.77 242.227C2430.93 242.227 2432.94 241.807 2434.8 240.966C2436.67 240.102 2438.29 238.932 2439.68 237.455C2441.09 235.955 2442.19 234.261 2442.99 232.375C2443.78 230.466 2444.18 228.477 2444.18 226.409C2444.18 223.682 2443.52 221.125 2442.2 218.739C2440.91 216.352 2439.11 214.42 2436.82 212.943C2434.54 211.466 2431.95 210.727 2429.04 210.727ZM2493.72 274V267.864L2516.77 242.636C2519.47 239.682 2521.7 237.114 2523.45 234.932C2525.2 232.727 2526.49 230.659 2527.34 228.727C2528.2 226.773 2528.63 224.727 2528.63 222.591C2528.63 220.136 2528.04 218.011 2526.86 216.216C2525.7 214.42 2524.11 213.034 2522.09 212.057C2520.06 211.08 2517.79 210.591 2515.27 210.591C2512.59 210.591 2510.24 211.148 2508.24 212.261C2506.27 213.352 2504.73 214.886 2503.64 216.864C2502.57 218.841 2502.04 221.159 2502.04 223.818H2493.99C2493.99 219.727 2494.94 216.136 2496.82 213.045C2498.71 209.955 2501.28 207.545 2504.53 205.818C2507.8 204.091 2511.47 203.227 2515.54 203.227C2519.63 203.227 2523.26 204.091 2526.41 205.818C2529.57 207.545 2532.05 209.875 2533.85 212.807C2535.64 215.739 2536.54 219 2536.54 222.591C2536.54 225.159 2536.07 227.67 2535.14 230.125C2534.23 232.557 2532.64 235.273 2530.37 238.273C2528.12 241.25 2524.99 244.886 2520.99 249.182L2505.31 265.955V266.5H2537.77V274H2493.72ZM2574.21 274.955C2569.53 274.955 2565.39 274.125 2561.8 272.466C2558.23 270.784 2555.45 268.477 2553.45 265.545C2551.45 262.591 2550.46 259.227 2550.48 255.455C2550.46 252.5 2551.04 249.773 2552.22 247.273C2553.4 244.75 2555.02 242.648 2557.06 240.966C2559.13 239.261 2561.44 238.182 2563.98 237.727V237.318C2560.64 236.455 2557.98 234.58 2556.01 231.693C2554.03 228.784 2553.05 225.477 2553.07 221.773C2553.05 218.227 2553.95 215.057 2555.77 212.261C2557.59 209.466 2560.09 207.261 2563.27 205.648C2566.47 204.034 2570.12 203.227 2574.21 203.227C2578.26 203.227 2581.87 204.034 2585.05 205.648C2588.23 207.261 2590.73 209.466 2592.55 212.261C2594.39 215.057 2595.32 218.227 2595.35 221.773C2595.32 225.477 2594.31 228.784 2592.31 231.693C2590.34 234.58 2587.71 236.455 2584.44 237.318V237.727C2586.96 238.182 2589.23 239.261 2591.26 240.966C2593.28 242.648 2594.89 244.75 2596.1 247.273C2597.3 249.773 2597.91 252.5 2597.94 255.455C2597.91 259.227 2596.89 262.591 2594.87 265.545C2592.87 268.477 2590.09 270.784 2586.52 272.466C2582.97 274.125 2578.87 274.955 2574.21 274.955ZM2574.21 267.455C2577.37 267.455 2580.1 266.943 2582.39 265.92C2584.69 264.898 2586.46 263.455 2587.71 261.591C2588.96 259.727 2589.6 257.545 2589.62 255.045C2589.6 252.409 2588.91 250.08 2587.57 248.057C2586.23 246.034 2584.4 244.443 2582.09 243.284C2579.79 242.125 2577.16 241.545 2574.21 241.545C2571.23 241.545 2568.57 242.125 2566.23 243.284C2563.91 244.443 2562.09 246.034 2560.74 248.057C2559.43 250.08 2558.78 252.409 2558.8 255.045C2558.78 257.545 2559.38 259.727 2560.61 261.591C2561.86 263.455 2563.64 264.898 2565.96 265.92C2568.28 266.943 2571.03 267.455 2574.21 267.455ZM2574.21 234.318C2576.71 234.318 2578.93 233.818 2580.86 232.818C2582.81 231.818 2584.35 230.42 2585.46 228.625C2586.57 226.83 2587.14 224.727 2587.16 222.318C2587.14 219.955 2586.59 217.898 2585.49 216.148C2584.4 214.375 2582.89 213.011 2580.96 212.057C2579.03 211.08 2576.78 210.591 2574.21 210.591C2571.6 210.591 2569.31 211.08 2567.36 212.057C2565.4 213.011 2563.89 214.375 2562.82 216.148C2561.76 217.898 2561.23 219.955 2561.26 222.318C2561.23 224.727 2561.77 226.83 2562.86 228.625C2563.97 230.42 2565.51 231.818 2567.46 232.818C2569.41 233.818 2571.66 234.318 2574.21 234.318ZM2633.37 274.955C2628.68 274.955 2624.55 274.125 2620.96 272.466C2617.39 270.784 2614.6 268.477 2612.6 265.545C2610.6 262.591 2609.62 259.227 2609.64 255.455C2609.62 252.5 2610.2 249.773 2611.38 247.273C2612.56 244.75 2614.17 242.648 2616.22 240.966C2618.29 239.261 2620.59 238.182 2623.14 237.727V237.318C2619.8 236.455 2617.14 234.58 2615.16 231.693C2613.18 228.784 2612.21 225.477 2612.23 221.773C2612.21 218.227 2613.1 215.057 2614.92 212.261C2616.74 209.466 2619.24 207.261 2622.42 205.648C2625.63 204.034 2629.28 203.227 2633.37 203.227C2637.41 203.227 2641.03 204.034 2644.21 205.648C2647.39 207.261 2649.89 209.466 2651.71 212.261C2653.55 215.057 2654.48 218.227 2654.5 221.773C2654.48 225.477 2653.47 228.784 2651.47 231.693C2649.49 234.58 2646.87 236.455 2643.59 237.318V237.727C2646.12 238.182 2648.39 239.261 2650.41 240.966C2652.43 242.648 2654.05 244.75 2655.25 247.273C2656.46 249.773 2657.07 252.5 2657.09 255.455C2657.07 259.227 2656.05 262.591 2654.03 265.545C2652.03 268.477 2649.24 270.784 2645.67 272.466C2642.13 274.125 2638.03 274.955 2633.37 274.955ZM2633.37 267.455C2636.53 267.455 2639.25 266.943 2641.55 265.92C2643.84 264.898 2645.62 263.455 2646.87 261.591C2648.12 259.727 2648.75 257.545 2648.78 255.045C2648.75 252.409 2648.07 250.08 2646.73 248.057C2645.39 246.034 2643.56 244.443 2641.24 243.284C2638.95 242.125 2636.32 241.545 2633.37 241.545C2630.39 241.545 2627.73 242.125 2625.39 243.284C2623.07 244.443 2621.24 246.034 2619.9 248.057C2618.58 250.08 2617.93 252.409 2617.96 255.045C2617.93 257.545 2618.54 259.727 2619.76 261.591C2621.01 263.455 2622.8 264.898 2625.12 265.92C2627.43 266.943 2630.18 267.455 2633.37 267.455ZM2633.37 234.318C2635.87 234.318 2638.08 233.818 2640.01 232.818C2641.97 231.818 2643.5 230.42 2644.62 228.625C2645.73 226.83 2646.3 224.727 2646.32 222.318C2646.3 219.955 2645.74 217.898 2644.65 216.148C2643.56 214.375 2642.05 213.011 2640.12 212.057C2638.18 211.08 2635.93 210.591 2633.37 210.591C2630.75 210.591 2628.47 211.08 2626.51 212.057C2624.56 213.011 2623.05 214.375 2621.98 216.148C2620.91 217.898 2620.39 219.955 2620.41 222.318C2620.39 224.727 2620.92 226.83 2622.01 228.625C2623.13 230.42 2624.66 231.818 2626.62 232.818C2628.57 233.818 2630.82 234.318 2633.37 234.318ZM2692.52 274.955C2687.84 274.955 2683.7 274.125 2680.11 272.466C2676.55 270.784 2673.76 268.477 2671.76 265.545C2669.76 262.591 2668.77 259.227 2668.8 255.455C2668.77 252.5 2669.35 249.773 2670.53 247.273C2671.72 244.75 2673.33 242.648 2675.37 240.966C2677.44 239.261 2679.75 238.182 2682.3 237.727V237.318C2678.95 236.455 2676.3 234.58 2674.32 231.693C2672.34 228.784 2671.36 225.477 2671.39 221.773C2671.36 218.227 2672.26 215.057 2674.08 212.261C2675.9 209.466 2678.4 207.261 2681.58 205.648C2684.78 204.034 2688.43 203.227 2692.52 203.227C2696.57 203.227 2700.18 204.034 2703.36 205.648C2706.55 207.261 2709.05 209.466 2710.86 212.261C2712.7 215.057 2713.64 218.227 2713.66 221.773C2713.64 225.477 2712.62 228.784 2710.62 231.693C2708.65 234.58 2706.02 236.455 2702.75 237.318V237.727C2705.27 238.182 2707.55 239.261 2709.57 240.966C2711.59 242.648 2713.2 244.75 2714.41 247.273C2715.61 249.773 2716.23 252.5 2716.25 255.455C2716.23 259.227 2715.2 262.591 2713.18 265.545C2711.18 268.477 2708.4 270.784 2704.83 272.466C2701.28 274.125 2697.18 274.955 2692.52 274.955ZM2692.52 267.455C2695.68 267.455 2698.41 266.943 2700.7 265.92C2703 264.898 2704.77 263.455 2706.02 261.591C2707.27 259.727 2707.91 257.545 2707.93 255.045C2707.91 252.409 2707.23 250.08 2705.89 248.057C2704.55 246.034 2702.72 244.443 2700.4 243.284C2698.1 242.125 2695.48 241.545 2692.52 241.545C2689.55 241.545 2686.89 242.125 2684.55 243.284C2682.23 244.443 2680.4 246.034 2679.06 248.057C2677.74 250.08 2677.09 252.409 2677.11 255.045C2677.09 257.545 2677.69 259.727 2678.92 261.591C2680.17 263.455 2681.95 264.898 2684.27 265.92C2686.59 266.943 2689.34 267.455 2692.52 267.455ZM2692.52 234.318C2695.02 234.318 2697.24 233.818 2699.17 232.818C2701.12 231.818 2702.66 230.42 2703.77 228.625C2704.89 226.83 2705.45 224.727 2705.48 222.318C2705.45 219.955 2704.9 217.898 2703.81 216.148C2702.72 214.375 2701.2 213.011 2699.27 212.057C2697.34 211.08 2695.09 210.591 2692.52 210.591C2689.91 210.591 2687.62 211.08 2685.67 212.057C2683.72 213.011 2682.2 214.375 2681.14 216.148C2680.07 217.898 2679.55 219.955 2679.57 222.318C2679.55 224.727 2680.08 226.83 2681.17 228.625C2682.28 230.42 2683.82 231.818 2685.77 232.818C2687.73 233.818 2689.98 234.318 2692.52 234.318Z" fill="#19213D"/>
<path d="M1879.61 435V382.636H1887.38V390.818H1888.06C1889.15 388.023 1890.91 385.852 1893.35 384.307C1895.78 382.739 1898.7 381.955 1902.11 381.955C1905.56 381.955 1908.44 382.739 1910.73 384.307C1913.05 385.852 1914.86 388.023 1916.15 390.818H1916.7C1918.04 388.114 1920.05 385.966 1922.73 384.375C1925.41 382.761 1928.63 381.955 1932.38 381.955C1937.06 381.955 1940.89 383.42 1943.87 386.352C1946.85 389.261 1948.34 393.795 1948.34 399.955V435H1940.29V399.955C1940.29 396.091 1939.23 393.33 1937.12 391.67C1935.01 390.011 1932.52 389.182 1929.65 389.182C1925.97 389.182 1923.12 390.295 1921.1 392.523C1919.07 394.727 1918.06 397.523 1918.06 400.909V435H1909.88V399.136C1909.88 396.159 1908.91 393.761 1906.98 391.943C1905.05 390.102 1902.56 389.182 1899.52 389.182C1897.43 389.182 1895.47 389.739 1893.65 390.852C1891.86 391.966 1890.4 393.511 1889.29 395.489C1888.2 397.443 1887.65 399.705 1887.65 402.273V435H1879.61ZM1978.45 436.227C1975.14 436.227 1972.12 435.602 1969.42 434.352C1966.72 433.08 1964.57 431.25 1962.98 428.864C1961.39 426.455 1960.59 423.545 1960.59 420.136C1960.59 417.136 1961.18 414.705 1962.36 412.841C1963.55 410.955 1965.12 409.477 1967.1 408.409C1969.08 407.341 1971.26 406.545 1973.65 406.023C1976.06 405.477 1978.48 405.045 1980.91 404.727C1984.09 404.318 1986.67 404.011 1988.65 403.807C1990.65 403.58 1992.1 403.205 1993.01 402.682C1993.94 402.159 1994.41 401.25 1994.41 399.955V399.682C1994.41 396.318 1993.49 393.705 1991.65 391.841C1989.83 389.977 1987.07 389.045 1983.36 389.045C1979.52 389.045 1976.51 389.886 1974.33 391.568C1972.15 393.25 1970.61 395.045 1969.73 396.955L1962.09 394.227C1963.45 391.045 1965.27 388.568 1967.55 386.795C1969.84 385 1972.34 383.75 1975.05 383.045C1977.77 382.318 1980.45 381.955 1983.09 381.955C1984.77 381.955 1986.7 382.159 1988.89 382.568C1991.09 382.955 1993.22 383.761 1995.26 384.989C1997.33 386.216 1999.05 388.068 2000.41 390.545C2001.77 393.023 2002.45 396.341 2002.45 400.5V435H1994.41V427.909H1994C1993.45 429.045 1992.55 430.261 1991.27 431.557C1990 432.852 1988.31 433.955 1986.19 434.864C1984.08 435.773 1981.5 436.227 1978.45 436.227ZM1979.68 429C1982.86 429 1985.55 428.375 1987.73 427.125C1989.93 425.875 1991.59 424.261 1992.7 422.284C1993.84 420.307 1994.41 418.227 1994.41 416.045V408.682C1994.07 409.091 1993.32 409.466 1992.16 409.807C1991.02 410.125 1989.7 410.409 1988.2 410.659C1986.73 410.886 1985.28 411.091 1983.87 411.273C1982.49 411.432 1981.36 411.568 1980.5 411.682C1978.41 411.955 1976.45 412.398 1974.64 413.011C1972.84 413.602 1971.39 414.5 1970.27 415.705C1969.18 416.886 1968.64 418.5 1968.64 420.545C1968.64 423.341 1969.67 425.455 1971.74 426.886C1973.83 428.295 1976.48 429 1979.68 429ZM2017.14 435V382.636H2024.91V390.545H2025.46C2026.41 387.955 2028.14 385.852 2030.64 384.239C2033.14 382.625 2035.96 381.818 2039.09 381.818C2039.68 381.818 2040.42 381.83 2041.31 381.852C2042.2 381.875 2042.87 381.909 2043.32 381.955V390.136C2043.05 390.068 2042.42 389.966 2041.45 389.83C2040.49 389.67 2039.48 389.591 2038.41 389.591C2035.87 389.591 2033.59 390.125 2031.59 391.193C2029.62 392.239 2028.05 393.693 2026.89 395.557C2025.75 397.398 2025.18 399.5 2025.18 401.864V435H2017.14ZM2059.63 454.636C2058.27 454.636 2057.05 454.523 2055.99 454.295C2054.92 454.091 2054.18 453.886 2053.77 453.682L2055.82 446.591C2057.77 447.091 2059.5 447.273 2061 447.136C2062.5 447 2063.83 446.33 2064.99 445.125C2066.17 443.943 2067.25 442.023 2068.22 439.364L2069.72 435.273L2050.36 382.636H2059.09L2073.54 424.364H2074.09L2088.54 382.636H2097.27L2075.04 442.636C2074.04 445.341 2072.8 447.58 2071.33 449.352C2069.85 451.148 2068.13 452.477 2066.18 453.341C2064.25 454.205 2062.07 454.636 2059.63 454.636ZM2130.66 382.636V389.455H2103.53V382.636H2130.66ZM2111.43 370.091H2119.48V420C2119.48 422.273 2119.81 423.977 2120.47 425.114C2121.15 426.227 2122.01 426.977 2123.06 427.364C2124.13 427.727 2125.25 427.909 2126.43 427.909C2127.32 427.909 2128.05 427.864 2128.62 427.773C2129.18 427.659 2129.64 427.568 2129.98 427.5L2131.62 434.727C2131.07 434.932 2130.31 435.136 2129.33 435.341C2128.35 435.568 2127.12 435.682 2125.62 435.682C2123.34 435.682 2121.12 435.193 2118.93 434.216C2116.78 433.239 2114.98 431.75 2113.55 429.75C2112.14 427.75 2111.43 425.227 2111.43 422.182V370.091ZM2142.76 435V382.636H2150.54V390.545H2151.08C2152.04 387.955 2153.76 385.852 2156.26 384.239C2158.76 382.625 2161.58 381.818 2164.72 381.818C2165.31 381.818 2166.05 381.83 2166.93 381.852C2167.82 381.875 2168.49 381.909 2168.95 381.955V390.136C2168.67 390.068 2168.05 389.966 2167.07 389.83C2166.12 389.67 2165.1 389.591 2164.04 389.591C2161.49 389.591 2159.22 390.125 2157.22 391.193C2155.24 392.239 2153.67 393.693 2152.51 395.557C2151.38 397.398 2150.81 399.5 2150.81 401.864V435H2142.76ZM2193.89 436.227C2190.57 436.227 2187.56 435.602 2184.86 434.352C2182.15 433.08 2180.01 431.25 2178.41 428.864C2176.82 426.455 2176.03 423.545 2176.03 420.136C2176.03 417.136 2176.62 414.705 2177.8 412.841C2178.98 410.955 2180.56 409.477 2182.54 408.409C2184.52 407.341 2186.7 406.545 2189.09 406.023C2191.49 405.477 2193.91 405.045 2196.35 404.727C2199.53 404.318 2202.11 404.011 2204.09 403.807C2206.09 403.58 2207.54 403.205 2208.45 402.682C2209.38 402.159 2209.85 401.25 2209.85 399.955V399.682C2209.85 396.318 2208.93 393.705 2207.09 391.841C2205.27 389.977 2202.51 389.045 2198.8 389.045C2194.96 389.045 2191.95 389.886 2189.77 391.568C2187.59 393.25 2186.05 395.045 2185.16 396.955L2177.53 394.227C2178.89 391.045 2180.71 388.568 2182.98 386.795C2185.28 385 2187.78 383.75 2190.48 383.045C2193.21 382.318 2195.89 381.955 2198.53 381.955C2200.21 381.955 2202.14 382.159 2204.32 382.568C2206.53 382.955 2208.65 383.761 2210.7 384.989C2212.77 386.216 2214.48 388.068 2215.85 390.545C2217.21 393.023 2217.89 396.341 2217.89 400.5V435H2209.85V427.909H2209.44C2208.89 429.045 2207.98 430.261 2206.71 431.557C2205.44 432.852 2203.74 433.955 2201.63 434.864C2199.52 435.773 2196.94 436.227 2193.89 436.227ZM2195.12 429C2198.3 429 2200.98 428.375 2203.16 427.125C2205.37 425.875 2207.03 424.261 2208.14 422.284C2209.28 420.307 2209.85 418.227 2209.85 416.045V408.682C2209.51 409.091 2208.76 409.466 2207.6 409.807C2206.46 410.125 2205.14 410.409 2203.64 410.659C2202.16 410.886 2200.72 411.091 2199.31 411.273C2197.93 411.432 2196.8 411.568 2195.94 411.682C2193.85 411.955 2191.89 412.398 2190.07 413.011C2188.28 413.602 2186.82 414.5 2185.71 415.705C2184.62 416.886 2184.07 418.5 2184.07 420.545C2184.07 423.341 2185.11 425.455 2187.18 426.886C2189.27 428.295 2191.91 429 2195.12 429ZM2273.52 382.636L2254.16 435H2245.97L2226.61 382.636H2235.34L2249.79 424.364H2250.34L2264.79 382.636H2273.52ZM2304.22 436.091C2299.17 436.091 2294.82 434.977 2291.16 432.75C2287.53 430.5 2284.72 427.364 2282.74 423.341C2280.79 419.295 2279.81 414.591 2279.81 409.227C2279.81 403.864 2280.79 399.136 2282.74 395.045C2284.72 390.932 2287.47 387.727 2290.99 385.432C2294.54 383.114 2298.67 381.955 2303.4 381.955C2306.13 381.955 2308.82 382.409 2311.48 383.318C2314.14 384.227 2316.56 385.705 2318.74 387.75C2320.92 389.773 2322.66 392.455 2323.96 395.795C2325.25 399.136 2325.9 403.25 2325.9 408.136V411.545H2285.54V404.591H2317.72C2317.72 401.636 2317.13 399 2315.95 396.682C2314.79 394.364 2313.13 392.534 2310.97 391.193C2308.83 389.852 2306.31 389.182 2303.4 389.182C2300.2 389.182 2297.42 389.977 2295.08 391.568C2292.76 393.136 2290.98 395.182 2289.73 397.705C2288.48 400.227 2287.85 402.932 2287.85 405.818V410.455C2287.85 414.409 2288.54 417.761 2289.9 420.511C2291.29 423.239 2293.21 425.318 2295.66 426.75C2298.12 428.159 2300.97 428.864 2304.22 428.864C2306.33 428.864 2308.24 428.568 2309.95 427.977C2311.67 427.364 2313.16 426.455 2314.41 425.25C2315.66 424.023 2316.63 422.5 2317.31 420.682L2325.08 422.864C2324.26 425.5 2322.89 427.818 2320.96 429.818C2319.03 431.795 2316.64 433.341 2313.8 434.455C2310.96 435.545 2307.76 436.091 2304.22 436.091ZM2346.18 365.182V435H2338.14V365.182H2346.18ZM2366.78 435.545C2365.1 435.545 2363.66 434.943 2362.45 433.739C2361.25 432.534 2360.65 431.091 2360.65 429.409C2360.65 427.727 2361.25 426.284 2362.45 425.08C2363.66 423.875 2365.1 423.273 2366.78 423.273C2368.47 423.273 2369.91 423.875 2371.11 425.08C2372.32 426.284 2372.92 427.727 2372.92 429.409C2372.92 430.523 2372.64 431.545 2372.07 432.477C2371.52 433.409 2370.78 434.159 2369.85 434.727C2368.94 435.273 2367.92 435.545 2366.78 435.545ZM2394.86 415.909L2394.72 405.955H2396.36L2419.27 382.636H2429.22L2404.81 407.318H2404.13L2394.86 415.909ZM2387.36 435V365.182H2395.4V435H2387.36ZM2420.63 435L2400.18 409.091L2405.9 403.5L2430.86 435H2420.63ZM2438.08 435V428.864L2467.8 390.682V390.136H2439.03V382.636H2478.17V389.045L2449.26 426.955V427.5H2479.12V435H2438.08Z" fill="#19213D"/>
<path d="M1879.61 596V543.636H1887.65V596H1879.61ZM1883.7 534.909C1882.13 534.909 1880.78 534.375 1879.64 533.307C1878.53 532.239 1877.97 530.955 1877.97 529.455C1877.97 527.955 1878.53 526.67 1879.64 525.602C1880.78 524.534 1882.13 524 1883.7 524C1885.27 524 1886.61 524.534 1887.72 525.602C1888.86 526.67 1889.43 527.955 1889.43 529.455C1889.43 530.955 1888.86 532.239 1887.72 533.307C1886.61 534.375 1885.27 534.909 1883.7 534.909ZM1910.43 564.5V596H1902.39V543.636H1910.16V551.818H1910.84C1912.07 549.159 1913.93 547.023 1916.43 545.409C1918.93 543.773 1922.16 542.955 1926.12 542.955C1929.66 542.955 1932.76 543.682 1935.42 545.136C1938.08 546.568 1940.15 548.75 1941.63 551.682C1943.1 554.591 1943.84 558.273 1943.84 562.727V596H1935.8V563.273C1935.8 559.159 1934.73 555.955 1932.59 553.659C1930.46 551.341 1927.53 550.182 1923.8 550.182C1921.23 550.182 1918.93 550.739 1916.91 551.852C1914.91 552.966 1913.33 554.591 1912.17 556.727C1911.01 558.864 1910.43 561.455 1910.43 564.5ZM1981.86 543.636V550.455H1953.64V543.636H1981.86ZM1962.09 596V536.409C1962.09 533.409 1962.8 530.909 1964.2 528.909C1965.61 526.909 1967.44 525.409 1969.69 524.409C1971.94 523.409 1974.32 522.909 1976.82 522.909C1978.8 522.909 1980.41 523.068 1981.66 523.386C1982.91 523.705 1983.84 524 1984.45 524.273L1982.14 531.227C1981.73 531.091 1981.16 530.92 1980.43 530.716C1979.73 530.511 1978.8 530.409 1977.64 530.409C1974.98 530.409 1973.06 531.08 1971.87 532.42C1970.72 533.761 1970.14 535.727 1970.14 538.318V596H1962.09ZM2012.26 597.091C2007.53 597.091 2003.38 595.966 1999.81 593.716C1996.27 591.466 1993.49 588.318 1991.49 584.273C1989.52 580.227 1988.53 575.5 1988.53 570.091C1988.53 564.636 1989.52 559.875 1991.49 555.807C1993.49 551.739 1996.27 548.58 1999.81 546.33C2003.38 544.08 2007.53 542.955 2012.26 542.955C2016.98 542.955 2021.12 544.08 2024.66 546.33C2028.23 548.58 2031.01 551.739 2032.98 555.807C2034.98 559.875 2035.98 564.636 2035.98 570.091C2035.98 575.5 2034.98 580.227 2032.98 584.273C2031.01 588.318 2028.23 591.466 2024.66 593.716C2021.12 595.966 2016.98 597.091 2012.26 597.091ZM2012.26 589.864C2015.85 589.864 2018.8 588.943 2021.12 587.102C2023.44 585.261 2025.15 582.841 2026.27 579.841C2027.38 576.841 2027.94 573.591 2027.94 570.091C2027.94 566.591 2027.38 563.33 2026.27 560.307C2025.15 557.284 2023.44 554.841 2021.12 552.977C2018.8 551.114 2015.85 550.182 2012.26 550.182C2008.66 550.182 2005.71 551.114 2003.39 552.977C2001.07 554.841 1999.36 557.284 1998.24 560.307C1997.13 563.33 1996.57 566.591 1996.57 570.091C1996.57 573.591 1997.13 576.841 1998.24 579.841C1999.36 582.841 2001.07 585.261 2003.39 587.102C2005.71 588.943 2008.66 589.864 2012.26 589.864ZM2088.49 614.409C2081.54 614.409 2075.39 613.455 2070.05 611.545C2064.71 609.659 2060.22 606.875 2056.58 603.193C2052.95 599.511 2050.2 595 2048.33 589.659C2046.47 584.318 2045.54 578.205 2045.54 571.318C2045.54 564.659 2046.48 558.705 2048.37 553.455C2050.28 548.205 2053.04 543.75 2056.65 540.091C2060.29 536.409 2064.7 533.602 2069.88 531.67C2075.08 529.739 2080.97 528.773 2087.54 528.773C2093.92 528.773 2099.51 529.818 2104.31 531.909C2109.13 533.977 2113.15 536.784 2116.38 540.33C2119.63 543.852 2122.06 547.818 2123.67 552.227C2125.31 556.636 2126.13 561.182 2126.13 565.864C2126.13 569.159 2125.97 572.5 2125.65 575.886C2125.33 579.273 2124.66 582.386 2123.64 585.227C2122.62 588.045 2121.04 590.318 2118.9 592.045C2116.79 593.773 2113.92 594.636 2110.31 594.636C2108.72 594.636 2106.97 594.386 2105.06 593.886C2103.15 593.386 2101.46 592.557 2099.98 591.398C2098.5 590.239 2097.63 588.682 2097.35 586.727H2096.95C2096.4 588.045 2095.56 589.295 2094.42 590.477C2093.31 591.659 2091.84 592.602 2090.03 593.307C2088.23 594.011 2086.04 594.318 2083.45 594.227C2080.49 594.114 2077.89 593.455 2075.64 592.25C2073.39 591.023 2071.5 589.364 2069.98 587.273C2068.48 585.159 2067.34 582.716 2066.57 579.943C2065.82 577.148 2065.45 574.136 2065.45 570.909C2065.45 567.841 2065.9 565.034 2066.81 562.489C2067.72 559.943 2068.98 557.716 2070.59 555.807C2072.23 553.898 2074.14 552.375 2076.32 551.239C2078.53 550.08 2080.9 549.364 2083.45 549.091C2085.72 548.864 2087.79 548.966 2089.65 549.398C2091.51 549.807 2093.05 550.432 2094.25 551.273C2095.46 552.091 2096.22 553 2096.54 554H2096.95V550.182H2104.17V581C2104.17 582.909 2104.71 584.591 2105.78 586.045C2106.84 587.5 2108.4 588.227 2110.45 588.227C2112.76 588.227 2114.54 587.432 2115.76 585.841C2117.01 584.25 2117.87 581.795 2118.32 578.477C2118.8 575.159 2119.04 570.909 2119.04 565.727C2119.04 562.682 2118.62 559.682 2117.78 556.727C2116.96 553.75 2115.71 550.966 2114.03 548.375C2112.37 545.784 2110.26 543.5 2107.72 541.523C2105.17 539.545 2102.18 538 2098.75 536.886C2095.34 535.75 2091.47 535.182 2087.13 535.182C2081.79 535.182 2077 536.011 2072.78 537.67C2068.57 539.307 2064.99 541.705 2062.04 544.864C2059.1 548 2056.87 551.818 2055.32 556.318C2053.8 560.795 2053.04 565.886 2053.04 571.591C2053.04 577.386 2053.8 582.534 2055.32 587.034C2056.87 591.534 2059.14 595.33 2062.14 598.42C2065.16 601.511 2068.9 603.852 2073.35 605.443C2077.81 607.057 2082.95 607.864 2088.76 607.864C2091.26 607.864 2093.73 607.625 2096.16 607.148C2098.59 606.67 2100.74 606.148 2102.6 605.58C2104.47 605.011 2105.81 604.591 2106.63 604.318L2108.54 610.591C2107.13 611.182 2105.29 611.773 2103.01 612.364C2100.76 612.955 2098.35 613.443 2095.79 613.83C2093.24 614.216 2090.81 614.409 2088.49 614.409ZM2084.54 587.273C2087.58 587.273 2090.05 586.659 2091.93 585.432C2093.82 584.205 2095.2 582.352 2096.06 579.875C2096.92 577.398 2097.35 574.273 2097.35 570.5C2097.35 566.682 2096.88 563.705 2095.92 561.568C2094.97 559.432 2093.56 557.932 2091.7 557.068C2089.83 556.205 2087.54 555.773 2084.81 555.773C2082.22 555.773 2080 556.455 2078.16 557.818C2076.34 559.159 2074.95 560.955 2073.97 563.205C2073.01 565.432 2072.54 567.864 2072.54 570.5C2072.54 573.409 2072.92 576.148 2073.7 578.716C2074.47 581.261 2075.73 583.33 2077.48 584.92C2079.23 586.489 2081.58 587.273 2084.54 587.273ZM2138.17 596V543.636H2145.94V551.818H2146.62C2147.72 549.023 2149.48 546.852 2151.91 545.307C2154.34 543.739 2157.26 542.955 2160.67 542.955C2164.12 542.955 2167 543.739 2169.3 545.307C2171.61 546.852 2173.42 549.023 2174.72 551.818H2175.26C2176.6 549.114 2178.61 546.966 2181.3 545.375C2183.98 543.761 2187.19 542.955 2190.94 542.955C2195.62 542.955 2199.45 544.42 2202.43 547.352C2205.41 550.261 2206.9 554.795 2206.9 560.955V596H2198.85V560.955C2198.85 557.091 2197.8 554.33 2195.68 552.67C2193.57 551.011 2191.08 550.182 2188.22 550.182C2184.53 550.182 2181.68 551.295 2179.66 553.523C2177.64 555.727 2176.62 558.523 2176.62 561.909V596H2168.44V560.136C2168.44 557.159 2167.48 554.761 2165.55 552.943C2163.61 551.102 2161.12 550.182 2158.08 550.182C2155.99 550.182 2154.03 550.739 2152.22 551.852C2150.42 552.966 2148.97 554.511 2147.85 556.489C2146.76 558.443 2146.22 560.705 2146.22 563.273V596H2138.17ZM2237.02 597.227C2233.7 597.227 2230.69 596.602 2227.98 595.352C2225.28 594.08 2223.13 592.25 2221.54 589.864C2219.95 587.455 2219.15 584.545 2219.15 581.136C2219.15 578.136 2219.74 575.705 2220.93 573.841C2222.11 571.955 2223.69 570.477 2225.66 569.409C2227.64 568.341 2229.82 567.545 2232.21 567.023C2234.62 566.477 2237.04 566.045 2239.47 565.727C2242.65 565.318 2245.23 565.011 2247.21 564.807C2249.21 564.58 2250.66 564.205 2251.57 563.682C2252.51 563.159 2252.97 562.25 2252.97 560.955V560.682C2252.97 557.318 2252.05 554.705 2250.21 552.841C2248.39 550.977 2245.63 550.045 2241.93 550.045C2238.09 550.045 2235.07 550.886 2232.89 552.568C2230.71 554.25 2229.18 556.045 2228.29 557.955L2220.65 555.227C2222.02 552.045 2223.84 549.568 2226.11 547.795C2228.4 546 2230.9 544.75 2233.61 544.045C2236.34 543.318 2239.02 542.955 2241.65 542.955C2243.34 542.955 2245.27 543.159 2247.45 543.568C2249.65 543.955 2251.78 544.761 2253.82 545.989C2255.89 547.216 2257.61 549.068 2258.97 551.545C2260.34 554.023 2261.02 557.341 2261.02 561.5V596H2252.97V588.909H2252.56C2252.02 590.045 2251.11 591.261 2249.84 592.557C2248.56 593.852 2246.87 594.955 2244.76 595.864C2242.64 596.773 2240.06 597.227 2237.02 597.227ZM2238.24 590C2241.43 590 2244.11 589.375 2246.29 588.125C2248.49 586.875 2250.15 585.261 2251.27 583.284C2252.4 581.307 2252.97 579.227 2252.97 577.045V569.682C2252.63 570.091 2251.88 570.466 2250.72 570.807C2249.59 571.125 2248.27 571.409 2246.77 571.659C2245.29 571.886 2243.85 572.091 2242.44 572.273C2241.05 572.432 2239.93 572.568 2239.06 572.682C2236.97 572.955 2235.02 573.398 2233.2 574.011C2231.4 574.602 2229.95 575.5 2228.84 576.705C2227.74 577.886 2227.2 579.5 2227.2 581.545C2227.2 584.341 2228.23 586.455 2230.3 587.886C2232.39 589.295 2235.04 590 2238.24 590ZM2275.7 596V543.636H2283.47V551.545H2284.02C2284.97 548.955 2286.7 546.852 2289.2 545.239C2291.7 543.625 2294.52 542.818 2297.66 542.818C2298.25 542.818 2298.99 542.83 2299.87 542.852C2300.76 542.875 2301.43 542.909 2301.88 542.955V551.136C2301.61 551.068 2300.99 550.966 2300.01 550.83C2299.05 550.67 2298.04 550.591 2296.97 550.591C2294.43 550.591 2292.16 551.125 2290.16 552.193C2288.18 553.239 2286.61 554.693 2285.45 556.557C2284.32 558.398 2283.75 560.5 2283.75 562.864V596H2275.7ZM2318.2 615.636C2316.83 615.636 2315.62 615.523 2314.55 615.295C2313.48 615.091 2312.74 614.886 2312.33 614.682L2314.38 607.591C2316.33 608.091 2318.06 608.273 2319.56 608.136C2321.06 608 2322.39 607.33 2323.55 606.125C2324.73 604.943 2325.81 603.023 2326.79 600.364L2328.29 596.273L2308.92 543.636H2317.65L2332.1 585.364H2332.65L2347.1 543.636H2355.83L2333.6 603.636C2332.6 606.341 2331.37 608.58 2329.89 610.352C2328.41 612.148 2326.7 613.477 2324.74 614.341C2322.81 615.205 2320.63 615.636 2318.2 615.636ZM2389.22 543.636V550.455H2362.09V543.636H2389.22ZM2370 531.091H2378.04V581C2378.04 583.273 2378.37 584.977 2379.03 586.114C2379.71 587.227 2380.58 587.977 2381.62 588.364C2382.69 588.727 2383.82 588.909 2385 588.909C2385.88 588.909 2386.61 588.864 2387.18 588.773C2387.75 588.659 2388.2 588.568 2388.54 588.5L2390.18 595.727C2389.63 595.932 2388.87 596.136 2387.89 596.341C2386.92 596.568 2385.68 596.682 2384.18 596.682C2381.91 596.682 2379.68 596.193 2377.5 595.216C2375.34 594.239 2373.54 592.75 2372.11 590.75C2370.7 588.75 2370 586.227 2370 583.182V531.091ZM2401.33 596V543.636H2409.1V551.545H2409.64C2410.6 548.955 2412.33 546.852 2414.83 545.239C2417.33 543.625 2420.14 542.818 2423.28 542.818C2423.87 542.818 2424.61 542.83 2425.5 542.852C2426.38 542.875 2427.05 542.909 2427.51 542.955V551.136C2427.24 551.068 2426.61 550.966 2425.63 550.83C2424.68 550.67 2423.67 550.591 2422.6 550.591C2420.05 550.591 2417.78 551.125 2415.78 552.193C2413.8 553.239 2412.24 554.693 2411.08 556.557C2409.94 558.398 2409.37 560.5 2409.37 562.864V596H2401.33ZM2452.45 597.227C2449.14 597.227 2446.12 596.602 2443.42 595.352C2440.72 594.08 2438.57 592.25 2436.98 589.864C2435.39 587.455 2434.59 584.545 2434.59 581.136C2434.59 578.136 2435.18 575.705 2436.36 573.841C2437.55 571.955 2439.12 570.477 2441.1 569.409C2443.08 568.341 2445.26 567.545 2447.65 567.023C2450.06 566.477 2452.48 566.045 2454.91 565.727C2458.09 565.318 2460.67 565.011 2462.65 564.807C2464.65 564.58 2466.1 564.205 2467.01 563.682C2467.94 563.159 2468.41 562.25 2468.41 560.955V560.682C2468.41 557.318 2467.49 554.705 2465.65 552.841C2463.83 550.977 2461.07 550.045 2457.36 550.045C2453.52 550.045 2450.51 550.886 2448.33 552.568C2446.15 554.25 2444.61 556.045 2443.73 557.955L2436.09 555.227C2437.45 552.045 2439.27 549.568 2441.55 547.795C2443.84 546 2446.34 544.75 2449.05 544.045C2451.77 543.318 2454.45 542.955 2457.09 542.955C2458.77 542.955 2460.7 543.159 2462.89 543.568C2465.09 543.955 2467.22 544.761 2469.26 545.989C2471.33 547.216 2473.05 549.068 2474.41 551.545C2475.77 554.023 2476.45 557.341 2476.45 561.5V596H2468.41V588.909H2468C2467.45 590.045 2466.55 591.261 2465.27 592.557C2464 593.852 2462.31 594.955 2460.19 595.864C2458.08 596.773 2455.5 597.227 2452.45 597.227ZM2453.68 590C2456.86 590 2459.55 589.375 2461.73 588.125C2463.93 586.875 2465.59 585.261 2466.7 583.284C2467.84 581.307 2468.41 579.227 2468.41 577.045V569.682C2468.07 570.091 2467.32 570.466 2466.16 570.807C2465.02 571.125 2463.7 571.409 2462.2 571.659C2460.73 571.886 2459.28 572.091 2457.87 572.273C2456.49 572.432 2455.36 572.568 2454.5 572.682C2452.41 572.955 2450.45 573.398 2448.64 574.011C2446.84 574.602 2445.39 575.5 2444.27 576.705C2443.18 577.886 2442.64 579.5 2442.64 581.545C2442.64 584.341 2443.67 586.455 2445.74 587.886C2447.83 589.295 2450.48 590 2453.68 590ZM2532.08 543.636L2512.72 596H2504.54L2485.17 543.636H2493.9L2508.35 585.364H2508.9L2523.35 543.636H2532.08ZM2562.78 597.091C2557.74 597.091 2553.38 595.977 2549.72 593.75C2546.09 591.5 2543.28 588.364 2541.3 584.341C2539.35 580.295 2538.37 575.591 2538.37 570.227C2538.37 564.864 2539.35 560.136 2541.3 556.045C2543.28 551.932 2546.03 548.727 2549.55 546.432C2553.1 544.114 2557.24 542.955 2561.96 542.955C2564.69 542.955 2567.38 543.409 2570.04 544.318C2572.7 545.227 2575.12 546.705 2577.3 548.75C2579.49 550.773 2581.22 553.455 2582.52 556.795C2583.82 560.136 2584.46 564.25 2584.46 569.136V572.545H2544.1V565.591H2576.28C2576.28 562.636 2575.69 560 2574.51 557.682C2573.35 555.364 2571.69 553.534 2569.53 552.193C2567.39 550.852 2564.87 550.182 2561.96 550.182C2558.76 550.182 2555.99 550.977 2553.64 552.568C2551.33 554.136 2549.54 556.182 2548.29 558.705C2547.04 561.227 2546.42 563.932 2546.42 566.818V571.455C2546.42 575.409 2547.1 578.761 2548.46 581.511C2549.85 584.239 2551.77 586.318 2554.22 587.75C2556.68 589.159 2559.53 589.864 2562.78 589.864C2564.89 589.864 2566.8 589.568 2568.51 588.977C2570.24 588.364 2571.72 587.455 2572.97 586.25C2574.22 585.023 2575.19 583.5 2575.87 581.682L2583.64 583.864C2582.83 586.5 2581.45 588.818 2579.52 590.818C2577.59 592.795 2575.2 594.341 2572.36 595.455C2569.52 596.545 2566.33 597.091 2562.78 597.091ZM2604.75 526.182V596H2596.7V526.182H2604.75ZM2625.35 596.545C2623.66 596.545 2622.22 595.943 2621.02 594.739C2619.81 593.534 2619.21 592.091 2619.21 590.409C2619.21 588.727 2619.81 587.284 2621.02 586.08C2622.22 584.875 2623.66 584.273 2625.35 584.273C2627.03 584.273 2628.47 584.875 2629.68 586.08C2630.88 587.284 2631.48 588.727 2631.48 590.409C2631.48 591.523 2631.2 592.545 2630.63 593.477C2630.09 594.409 2629.35 595.159 2628.41 595.727C2627.51 596.273 2626.48 596.545 2625.35 596.545ZM2653.42 576.909L2653.28 566.955H2654.92L2677.83 543.636H2687.78L2663.37 568.318H2662.69L2653.42 576.909ZM2645.92 596V526.182H2653.97V596H2645.92ZM2679.19 596L2658.74 570.091L2664.47 564.5L2689.42 596H2679.19ZM2696.64 596V589.864L2726.37 551.682V551.136H2697.59V543.636H2736.73V550.045L2707.82 587.955V588.5H2737.68V596H2696.64Z" fill="#19213D"/>
<path d="M1776.63 449.209C1786.62 449.208 1796.38 446.244 1804.69 440.692C1813 435.141 1819.47 427.251 1823.29 418.021C1827.11 408.791 1828.11 398.634 1826.16 388.836C1824.22 379.037 1819.4 370.037 1812.34 362.973C1805.28 355.908 1796.28 351.097 1786.48 349.148C1776.68 347.198 1766.52 348.198 1757.29 352.021C1748.06 355.843 1740.17 362.317 1734.62 370.623C1729.07 378.929 1726.11 388.695 1726.1 398.685C1726.1 405.32 1727.41 411.891 1729.95 418.021C1732.49 424.151 1736.21 429.721 1740.9 434.413C1745.59 439.105 1751.16 442.827 1757.29 445.365C1763.42 447.904 1769.99 449.21 1776.63 449.209V449.209Z" stroke="#FF2D46" stroke-width="2.95735" stroke-linecap="round" stroke-linejoin="round"/>
<path d="M1728.64 414.528H1823.17" stroke="#FF2D46" stroke-width="2.95735" stroke-linecap="round" stroke-linejoin="round"/>
<path d="M1728.64 382.838H1823.17" stroke="#FF2D46" stroke-width="2.95735" stroke-linecap="round" stroke-linejoin="round"/>
<path d="M1765.72 349.36C1756.66 382.075 1757.99 416.799 1769.54 448.721" stroke="#FF2D46" stroke-width="2.95735" stroke-linecap="round" stroke-linejoin="round"/>
<path d="M1787.52 349.36C1791.48 363.597 1793.48 378.308 1793.46 393.086C1793.5 412.055 1790.22 430.884 1783.76 448.721" stroke="#FF2D46" stroke-width="2.95735" stroke-linecap="round" stroke-linejoin="round"/>
<path d="M1827.14 522.861V573.378C1827.14 576.727 1825.81 579.939 1823.44 582.308C1821.07 584.676 1817.86 586.007 1814.51 586.007H1738.73C1735.38 586.007 1732.17 584.676 1729.8 582.308C1727.43 579.939 1726.1 576.727 1726.1 573.378V522.861" stroke="#FF2D46" stroke-width="2.66751" stroke-linecap="round" stroke-linejoin="round"/>
<path d="M1827.14 522.862C1827.14 519.513 1825.81 516.301 1823.44 513.932C1821.07 511.564 1817.86 510.233 1814.51 510.233H1738.73C1735.38 510.233 1732.17 511.564 1729.8 513.932C1727.43 516.301 1726.1 519.513 1726.1 522.862L1769.93 550.225C1771.93 551.48 1774.25 552.145 1776.62 552.145C1778.99 552.145 1781.31 551.48 1783.31 550.225L1827.14 522.862Z" stroke="#FF2D46" stroke-width="2.66751" stroke-linecap="round" stroke-linejoin="round"/>
<path d="M1778.6 199.833C1747.83 199.833 1722.83 224.833 1722.83 255.606C1722.83 265.497 1725.54 274.728 1730.07 282.786L1722.92 308.3C1722.81 308.708 1722.8 309.139 1722.91 309.55C1723.01 309.961 1723.22 310.337 1723.52 310.642C1723.81 310.946 1724.18 311.168 1724.59 311.284C1725 311.401 1725.43 311.409 1725.84 311.307L1752.44 304.715C1760.26 308.888 1769.13 311.378 1778.6 311.378C1809.38 311.378 1834.38 286.379 1834.38 255.606C1834.38 224.833 1809.38 199.833 1778.6 199.833ZM1778.6 204.683C1806.76 204.683 1829.53 227.454 1829.53 255.606C1829.53 283.758 1806.76 306.529 1778.6 306.529C1769.58 306.529 1761.13 304.176 1753.78 300.064C1753.24 299.764 1752.61 299.679 1752.01 299.827L1728.71 305.6L1734.96 283.312C1735.05 282.997 1735.08 282.667 1735.03 282.343C1734.99 282.018 1734.89 281.705 1734.72 281.422C1730.25 273.85 1727.68 265.039 1727.68 255.606C1727.68 227.454 1750.45 204.683 1778.6 204.683ZM1758.34 226.507C1756.78 226.507 1754.56 227.085 1752.74 229.05C1751.65 230.23 1747.08 234.678 1747.08 242.496C1747.08 250.647 1752.73 257.681 1753.42 258.585H1753.42V258.589C1753.36 258.504 1754.29 259.855 1755.54 261.474C1756.78 263.093 1758.52 265.22 1760.71 267.522C1765.08 272.126 1771.23 277.448 1778.86 280.703C1782.37 282.199 1785.15 283.103 1787.25 283.762C1791.14 284.984 1794.69 284.799 1797.35 284.406C1799.34 284.113 1801.54 283.155 1803.71 281.782C1805.88 280.409 1808 278.702 1808.94 276.108C1809.61 274.249 1809.95 272.531 1810.08 271.117C1810.14 270.41 1810.15 269.786 1810.1 269.208C1810.05 268.63 1810.1 268.188 1809.56 267.304C1808.44 265.45 1807.16 265.402 1805.82 264.742C1805.08 264.375 1802.97 263.344 1800.86 262.336C1798.74 261.328 1796.91 260.436 1795.78 260.034C1795.07 259.778 1794.2 259.409 1792.95 259.551C1791.69 259.693 1790.45 260.598 1789.73 261.668C1789.05 262.682 1786.29 265.932 1785.45 266.887C1785.44 266.88 1785.51 266.914 1785.18 266.75C1784.15 266.236 1782.88 265.799 1781 264.808C1779.12 263.817 1776.77 262.353 1774.2 260.086V260.081C1770.37 256.711 1767.69 252.48 1766.84 251.059C1766.9 250.991 1766.83 251.073 1766.95 250.955L1766.96 250.95C1767.82 250.099 1768.59 249.082 1769.24 248.336C1770.15 247.278 1770.56 246.346 1771 245.475C1771.87 243.739 1771.39 241.829 1770.88 240.824V240.82C1770.92 240.889 1770.61 240.208 1770.27 239.422C1769.94 238.634 1769.52 237.613 1769.06 236.524C1768.15 234.345 1767.14 231.902 1766.54 230.471V230.466C1765.83 228.781 1764.87 227.566 1763.61 226.981C1762.35 226.395 1761.24 226.561 1761.2 226.559H1761.19C1760.3 226.518 1759.31 226.507 1758.34 226.507ZM1758.34 231.357C1759.27 231.357 1760.2 231.368 1760.97 231.404C1761.76 231.444 1761.71 231.447 1761.56 231.376C1761.4 231.303 1761.61 231.28 1762.07 232.351C1762.66 233.753 1763.68 236.205 1764.59 238.39C1765.04 239.482 1765.47 240.508 1765.81 241.312C1766.15 242.116 1766.33 242.565 1766.55 242.993V242.998L1766.55 243.003C1766.76 243.417 1766.74 243.152 1766.67 243.297C1766.16 244.312 1766.09 244.562 1765.57 245.158C1764.78 246.066 1763.98 247.078 1763.55 247.497C1763.18 247.863 1762.51 248.433 1762.09 249.548C1761.67 250.665 1761.87 252.198 1762.54 253.342C1763.44 254.865 1766.39 259.678 1770.99 263.723C1773.88 266.275 1776.58 267.963 1778.73 269.099C1780.89 270.235 1782.64 270.899 1783.03 271.093C1783.97 271.554 1784.98 271.912 1786.17 271.77C1787.35 271.628 1788.37 270.909 1789.02 270.174L1789.03 270.169C1789.89 269.188 1792.47 266.253 1793.7 264.443C1793.75 264.462 1793.73 264.447 1794.14 264.595V264.6H1794.15C1794.34 264.666 1796.68 265.716 1798.77 266.712C1800.86 267.708 1802.98 268.744 1803.67 269.085C1804.67 269.577 1805.14 269.898 1805.26 269.899C1805.27 270.113 1805.28 270.344 1805.25 270.695C1805.16 271.669 1804.9 273.017 1804.38 274.46C1804.12 275.167 1802.79 276.624 1801.12 277.686C1799.44 278.747 1797.4 279.497 1796.64 279.608C1794.37 279.943 1791.67 280.066 1788.7 279.135C1786.65 278.49 1784.08 277.654 1780.76 276.241C1774.03 273.37 1768.31 268.486 1764.23 264.183C1762.18 262.031 1760.55 260.029 1759.38 258.514C1758.22 257.001 1757.71 256.215 1757.29 255.658L1757.28 255.653C1756.53 254.66 1751.93 248.26 1751.93 242.496C1751.93 236.396 1754.76 234.003 1756.3 232.351C1757.1 231.484 1757.98 231.357 1758.34 231.357Z" fill="#FF2D46"/>
</g>
<defs>
<filter id="filter0_d_5707_4578" x="0" y="0" width="3154" height="822" filterUnits="userSpaceOnUse" color-interpolation-filters="sRGB">
<feFlood flood-opacity="0" result="BackgroundImageFix"/>
<feColorMatrix in="SourceAlpha" type="matrix" values="0 0 0 0 0 0 0 0 0 0 0 0 0 0 0 0 0 0 127 0" result="hardAlpha"/>
<feOffset dy="10"/>
<feGaussianBlur stdDeviation="40"/>
<feComposite in2="hardAlpha" operator="out"/>
<feColorMatrix type="matrix" values="0 0 0 0 0.591667 0 0 0 0 0.591667 0 0 0 0 0.591667 0 0 0 0.08 0"/>
<feBlend mode="normal" in2="BackgroundImageFix" result="effect1_dropShadow_5707_4578"/>
<feBlend mode="normal" in="SourceGraphic" in2="effect1_dropShadow_5707_4578" result="shape"/>
</filter>
</defs>
</svg>
